<svg xmlns="http://www.w3.org/2000/svg" xmlns:xlink="http://www.w3.org/1999/xlink" width="1024" zoomAndPan="magnify" viewBox="0 0 768 767.999994" height="1024" preserveAspectRatio="xMidYMid meet" version="1.0"><defs><clipPath id="620ae2c172"><path d="M 384 0 C 171.921875 0 0 171.921875 0 384 C 0 596.078125 171.921875 768 384 768 C 596.078125 768 768 596.078125 768 384 C 768 171.921875 596.078125 0 384 0 Z M 384 0 " clip-rule="nonzero"/></clipPath><clipPath id="d9621e3001"><path d="M 0 0 L 768 0 L 768 768 L 0 768 Z M 0 0 " clip-rule="nonzero"/></clipPath><clipPath id="ec74fe9358"><path d="M 384 0 C 171.921875 0 0 171.921875 0 384 C 0 596.078125 171.921875 768 384 768 C 596.078125 768 768 596.078125 768 384 C 768 171.921875 596.078125 0 384 0 Z M 384 0 " clip-rule="nonzero"/></clipPath><clipPath id="b8276e37f7"><rect x="0" width="768" y="0" height="768"/></clipPath><clipPath id="a470e9df64"><path d="M 170.496094 163 L 576 163 L 576 691 L 170.496094 691 Z M 170.496094 163 " clip-rule="nonzero"/></clipPath><clipPath id="c9c3aa709a"><path d="M 468 248 L 597.246094 248 L 597.246094 388 L 468 388 Z M 468 248 " clip-rule="nonzero"/></clipPath></defs><g clip-path="url(#620ae2c172)"><g transform="matrix(1, 0, 0, 1, 0, -0.000000000000057351)"><g clip-path="url(#b8276e37f7)"><g clip-path="url(#d9621e3001)"><g clip-path="url(#ec74fe9358)"><rect x="-168.96" width="1105.92" fill="#f6f6f6" height="1105.919991" y="-168.959999" fill-opacity="1"/></g></g></g></g></g><g clip-path="url(#a470e9df64)"><path fill="#1800ad" d="M 439.210938 548.46875 C 439.078125 549.964844 439.078125 551.464844 439.210938 552.964844 C 439.210938 553.863281 438.988281 553.5625 439.8125 553.863281 L 439.8125 574.800781 L 440.710938 574.800781 L 440.710938 600.609375 L 441.644531 600.609375 L 441.644531 627.578125 L 440.710938 627.578125 L 440.710938 633.832031 C 439.136719 633.832031 440.183594 633.570312 439.8125 634.433594 L 438.613281 634.433594 C 438.613281 633.980469 438.351562 634.058594 438.238281 633.871094 C 437.636719 632.820312 437.898438 631.808594 437.113281 631.433594 L 437.113281 628.4375 L 436.175781 628.4375 L 435.578125 615.851562 L 434.679688 615.851562 C 435.097656 611.835938 434.875 607.851562 434.003906 603.90625 C 433.519531 602.519531 434.003906 603.042969 433.144531 602.667969 L 433.144531 591.019531 L 432.246094 591.019531 L 431.644531 576.300781 L 430.707031 576.300781 L 430.707031 570.644531 C 429.921875 570.304688 430.070312 569.554688 430.148438 568.546875 L 429.808594 562.214844 C 429.808594 561.316406 430.035156 561.652344 429.210938 561.351562 L 429.210938 553.5625 L 428.273438 553.5625 L 427.710938 538.878906 L 426.777344 538.878906 C 426.777344 480.148438 435.804688 540.601562 439.210938 548.46875 C 441.984375 554.835938 439.210938 497.113281 439.210938 548.46875 Z M 255.222656 166.859375 L 255.222656 167.792969 C 254.210938 167.792969 254.585938 167.792969 254.101562 168.429688 L 252.640625 170.566406 C 252.039062 171.429688 252.1875 170.792969 252.1875 172.289062 L 251.289062 172.289062 C 251.289062 174.535156 250.578125 173.601562 249.828125 175.285156 L 249.042969 176.671875 L 248.707031 177.269531 L 248.480469 177.644531 C 247.914062 178.304688 247.589844 179.066406 247.507812 179.929688 C 247.488281 180.21875 247.488281 180.503906 247.507812 180.792969 C 245.558594 181.015625 245.972656 183.1875 245.972656 184.539062 L 245.074219 184.539062 C 245.074219 187.160156 243.535156 185.847656 243.535156 188.285156 L 242.636719 188.285156 C 242.636719 191.019531 242.039062 188.621094 242.039062 191.28125 L 241.101562 191.28125 L 241.101562 193.117188 C 240.464844 193.117188 240.914062 193.117188 240.429688 193.117188 C 239.933594 193.488281 239.609375 193.976562 239.453125 194.578125 C 239.453125 194.578125 239.453125 194.578125 239.453125 194.800781 L 238.96875 195.550781 C 238.449219 196.402344 238.1875 197.324219 238.179688 198.320312 L 237.242188 198.320312 C 237.242188 200.53125 235.96875 200.417969 235.746094 202.066406 L 234.882812 202.066406 C 234.882812 203.453125 234.058594 203.753906 233.460938 204.875 L 231.851562 208.921875 L 230.914062 208.921875 C 230.914062 211.695312 230.539062 209.296875 230.316406 211.320312 L 229.414062 211.320312 C 229.414062 213.941406 227.917969 212.667969 227.917969 215.253906 L 226.644531 215.253906 C 226.644531 217.238281 225.707031 217.050781 224.921875 219 L 224.359375 219.972656 C 223.945312 220.757812 223.722656 220.382812 223.609375 221.582031 L 222.898438 221.582031 C 222.898438 224.316406 222.296875 221.882812 222.296875 224.578125 L 220.761719 224.578125 C 220.761719 227.3125 219.601562 226.75 218.777344 228.925781 L 218.777344 229.335938 C 218.105469 231.058594 217.128906 230.945312 216.980469 232.371094 L 216.042969 232.371094 L 213.722656 236.941406 L 213.535156 237.351562 L 213.535156 237.800781 C 213.347656 238.363281 213.535156 237.089844 213.273438 238.699219 L 212.371094 238.699219 C 212.371094 241.585938 210.835938 239.449219 210.835938 242.445312 L 209.9375 242.445312 L 209.9375 243.945312 L 207.914062 243.945312 L 207.914062 246.339844 L 206.304688 247.464844 C 205.574219 248.257812 205.097656 249.179688 204.882812 250.238281 L 204.167969 250.238281 C 204.246094 250.597656 204.246094 250.960938 204.167969 251.324219 L 203.832031 251.921875 C 203.753906 252.03125 203.667969 252.132812 203.570312 252.222656 C 202.671875 253.195312 202.785156 252.222656 202.785156 254.171875 C 201.324219 254.171875 202.335938 253.90625 201.699219 254.582031 C 201.0625 255.257812 201.398438 254.09375 201.25 255.667969 L 200.347656 255.667969 L 199.789062 257.730469 C 199.261719 258.777344 199 258.179688 198.8125 259.527344 L 197.953125 259.527344 C 197.953125 262.296875 197.578125 259.902344 197.316406 261.921875 C 196.152344 261.921875 196.867188 261.699219 196.230469 262.335938 C 195.59375 262.972656 196.230469 262.335938 195.78125 263.421875 C 195.328125 264.507812 196.003906 263.832031 195.105469 264.546875 L 194.019531 264.921875 C 193.792969 266.941406 193.417969 264.546875 193.417969 267.316406 L 192.484375 267.316406 C 192.484375 268.816406 192.707031 267.765625 192.070312 268.402344 C 191.433594 269.039062 192.484375 268.664062 190.984375 268.816406 C 190.984375 270.914062 190.273438 269.9375 189.636719 271.398438 C 189.375 272.035156 189.636719 271.925781 189.636719 272.75 L 188.699219 272.75 C 188.699219 274.023438 188.324219 273.574219 187.613281 274.320312 C 186.902344 275.070312 187.613281 274.320312 187.203125 275.070312 L 186.863281 275.671875 C 186.695312 275.816406 186.546875 275.976562 186.414062 276.15625 C 185.855469 276.757812 185.777344 276.382812 185.667969 277.503906 L 184.765625 277.503906 L 184.765625 279.003906 C 182.59375 279.265625 184.765625 280.277344 182.332031 280.503906 C 182.332031 283.273438 181.957031 280.875 181.734375 282.898438 C 180.535156 282.898438 181.285156 282.898438 180.648438 283.3125 C 179.074219 284.433594 181.472656 283.5 177.949219 287.058594 C 177.164062 287.804688 177.277344 288.105469 176.675781 288.855469 C 176.078125 289.605469 175.664062 289.753906 175.554688 290.726562 L 174.203125 290.726562 C 174.203125 292.675781 173.378906 292.226562 172.78125 293.5 L 172.445312 294.359375 C 172.445312 294.359375 172.445312 294.546875 172.445312 294.585938 L 171.957031 296.535156 C 171.945312 297.804688 171.773438 299.054688 171.433594 300.28125 C 171.132812 301.253906 171.433594 302.113281 171.246094 303.125 C 171.058594 304.136719 171.246094 303.125 170.871094 303.988281 C 170.382812 305.597656 170.871094 305.296875 170.871094 305.523438 C 171.140625 306.832031 171.25 308.15625 171.207031 309.492188 L 171.582031 311.140625 C 171.804688 312.457031 171.894531 313.78125 171.84375 315.113281 C 171.914062 315.699219 172.039062 316.273438 172.21875 316.835938 L 172.707031 318.746094 L 173.640625 318.746094 C 173.640625 320.769531 174.242188 318.371094 174.242188 321.144531 L 175.140625 321.144531 C 175.140625 323.765625 176.640625 322.378906 176.640625 324.886719 L 177.574219 324.886719 C 177.574219 326.386719 177.3125 325.339844 177.949219 325.976562 C 178.585938 326.613281 177.539062 326.238281 179.074219 326.386719 C 179.261719 327.996094 179.074219 326.722656 179.375 327.285156 L 180.234375 328.859375 C 180.535156 329.382812 180.234375 328.222656 180.609375 329.71875 L 181.472656 329.71875 C 181.695312 331.332031 181.472656 329.984375 181.808594 330.621094 C 181.808594 330.621094 181.808594 330.621094 181.808594 330.84375 C 182.445312 332.230469 182.933594 331.707031 182.933594 333.617188 L 184.46875 333.617188 L 184.46875 335.113281 L 185.441406 335.113281 L 186.488281 337.363281 C 187.613281 338.824219 188.476562 338.371094 188.476562 340.46875 L 189.1875 340.46875 C 189.375 342.492188 189.75 340.132812 189.75 342.867188 L 190.683594 342.867188 L 192.144531 345.003906 C 192.78125 346.464844 193.71875 346.351562 193.71875 348.261719 L 194.617188 348.261719 L 194.617188 349.199219 L 195.480469 349.199219 L 195.480469 350.695312 L 197.015625 350.695312 L 197.015625 354.140625 L 198.515625 354.140625 L 198.515625 355.640625 L 199.449219 355.640625 C 199.449219 357.363281 199.449219 355.640625 199.824219 356.765625 C 200.199219 357.886719 201.398438 358 201.546875 359.5 L 202.484375 359.5 L 202.484375 360.996094 L 203.382812 360.996094 C 203.382812 362.382812 204.132812 362.046875 204.730469 362.980469 L 205.480469 364.890625 C 205.929688 365.902344 205.480469 364.890625 206.078125 365.867188 L 207.914062 368.789062 L 208.851562 368.789062 C 208.851562 370.25 208.628906 369.238281 209.265625 369.875 C 209.902344 370.511719 208.777344 370.136719 210.351562 370.285156 C 210.351562 371.746094 210.125 371.148438 210.726562 371.972656 L 211.960938 373.132812 C 212.167969 373.355469 212.355469 373.59375 212.523438 373.84375 L 213.046875 375.082031 C 213.046875 375.082031 213.273438 375.34375 213.382812 375.378906 L 214.097656 375.605469 C 214.058594 375.980469 214.058594 376.355469 214.097656 376.730469 C 214.46875 378.113281 215.371094 377.367188 215.519531 378.863281 L 216.457031 378.863281 C 216.457031 380.285156 217.390625 380.738281 217.917969 381.898438 L 220.761719 385.980469 C 220.761719 386.242188 220.761719 385.980469 220.988281 386.65625 L 221.925781 386.65625 C 221.925781 388.378906 222.449219 388.378906 223.421875 389.351562 L 224.621094 391.148438 C 224.996094 391.898438 224.621094 390.324219 224.957031 392.085938 L 225.855469 392.085938 C 225.855469 394.222656 226.417969 393.132812 228.328125 396.46875 L 228.328125 396.691406 L 228.777344 397.140625 L 229.679688 397.140625 C 229.679688 399.652344 230.988281 399.015625 232.300781 401.710938 C 232.898438 403.0625 232.300781 403.398438 234.246094 403.433594 L 234.246094 404.933594 L 235.109375 404.933594 C 235.332031 406.542969 235.109375 405.195312 235.484375 406.058594 L 235.894531 406.804688 C 236.605469 407.929688 236.605469 406.804688 236.605469 408.828125 L 238.144531 408.828125 L 238.144531 410.328125 L 239.042969 410.328125 C 239.265625 412.125 239.042969 410.328125 239.417969 411.449219 C 239.777344 412.160156 240.253906 412.785156 240.839844 413.324219 C 241.476562 414 241.4375 414.671875 242.074219 415.421875 C 243.164062 416.769531 243.085938 417.929688 244.511719 418.117188 L 244.511719 419.015625 L 245.410156 419.015625 L 245.410156 421.566406 C 245.910156 421.734375 246.421875 421.832031 246.945312 421.863281 L 247.320312 423.550781 C 247.507812 423.929688 247.78125 424.238281 248.136719 424.472656 C 248.492188 424.707031 248.878906 424.835938 249.304688 424.859375 C 249.304688 427.59375 249.753906 425.234375 249.980469 427.296875 C 251.628906 427.296875 251.738281 428.792969 252.003906 429.429688 L 252.300781 430.328125 C 252.359375 430.589844 252.359375 430.855469 252.300781 431.117188 C 253.800781 431.304688 252.789062 431.117188 253.386719 431.566406 C 253.988281 432.015625 253.648438 431.117188 253.800781 432.613281 L 254.738281 432.613281 L 254.738281 434.113281 L 255.671875 434.113281 C 255.859375 436.171875 256.234375 433.8125 256.234375 436.546875 C 257.808594 436.546875 257.769531 437.597656 257.769531 438.945312 L 259.605469 438.945312 L 259.605469 441.339844 C 260.691406 441.714844 259.605469 441.792969 261.105469 441.941406 C 261.328125 443.964844 261.703125 441.566406 261.703125 444.339844 L 262.640625 444.339844 L 262.640625 445.199219 L 264.101562 445.199219 C 264.101562 446.210938 264.101562 446.097656 264.363281 446.773438 L 265.523438 447.183594 C 265.710938 449.246094 268.332031 450.929688 268.519531 452.878906 C 269.121094 452.878906 268.519531 452.878906 269.007812 452.878906 L 269.832031 453.554688 C 269.832031 453.554688 269.832031 453.554688 269.832031 453.777344 C 269.816406 453.851562 269.816406 453.925781 269.832031 454.003906 C 269.832031 454.003906 269.832031 454.003906 269.832031 454.1875 C 270.417969 455.457031 271.167969 456.617188 272.078125 457.671875 C 272.679688 458.945312 271.78125 459.019531 273.726562 459.058594 C 273.726562 460.40625 273.726562 460.183594 274.328125 461.195312 L 274.851562 461.867188 C 276.085938 463.402344 273.839844 460.746094 275.113281 462.167969 C 276.386719 463.589844 276.160156 462.691406 276.160156 464.414062 C 277.660156 464.414062 277.433594 465.988281 278.257812 466.886719 L 278.445312 466.886719 L 279.609375 468.722656 C 279.796875 468.984375 279.832031 468.421875 279.945312 469.546875 L 280.882812 469.546875 C 280.824219 469.832031 280.824219 470.121094 280.882812 470.40625 C 281.144531 471.757812 282.492188 471.980469 282.941406 473.21875 C 282.941406 473.480469 283.203125 474.601562 283.203125 474.976562 C 285.039062 474.976562 284.515625 475.765625 285.636719 477.039062 L 288.109375 481.234375 C 288.933594 482.019531 287.734375 481.644531 289.273438 481.871094 C 289.246094 482.617188 289.457031 483.292969 289.910156 483.894531 L 291.707031 485.726562 C 291.707031 487.339844 292.007812 487.113281 292.71875 488.011719 L 294.441406 491.121094 C 294.664062 491.722656 294.441406 490.449219 294.703125 492.019531 L 295.640625 492.019531 L 296.050781 493.707031 C 296.988281 494.867188 297.136719 493.96875 297.136719 495.953125 L 298.074219 495.953125 C 298.074219 498.6875 298.449219 496.328125 298.671875 498.351562 L 299.574219 498.351562 C 299.574219 499.738281 300.320312 500.375 300.882812 501.570312 C 301.144531 502.210938 301.109375 501.871094 301.109375 502.808594 L 302.007812 502.808594 C 302.007812 505.730469 302.605469 504.679688 302.605469 509.4375 L 302.605469 515.207031 C 302.605469 517.042969 302.867188 515.992188 302.007812 516.367188 L 302.007812 524.796875 L 301.558594 524.796875 L 301.558594 531.050781 C 300.734375 531.351562 300.695312 531.648438 300.621094 534.347656 C 300.621094 535.019531 300.621094 535.84375 300.621094 536.519531 C 300.621094 538.207031 300.621094 537.644531 299.945312 537.941406 L 299.945312 542.699219 L 299.046875 542.699219 L 299.046875 549.628906 C 298.113281 550.003906 298.597656 548.957031 298.375 550.789062 C 298.375 551.203125 298.375 552.4375 298.375 552.925781 C 298.375 556.445312 297.773438 553.824219 297.4375 556.183594 C 297.25 557.796875 297.8125 560.902344 297.136719 562.175781 L 296.3125 564.386719 C 295.929688 566.746094 295.816406 569.121094 295.976562 571.503906 C 295.976562 574.5 295.078125 571.503906 295.003906 574.761719 C 295.003906 577.121094 295.675781 577.871094 294.402344 578.507812 L 294.402344 583.265625 L 293.503906 583.265625 L 293.503906 588.695312 C 292.792969 588.960938 292.792969 589.746094 292.679688 590.605469 L 292.007812 594.351562 C 291.820312 595.625 292.304688 597.425781 291.78125 598.546875 C 291.257812 599.671875 291.105469 598.171875 291.070312 600.535156 C 291.070312 601.019531 291.070312 601.65625 291.070312 602.105469 C 291.070312 602.554688 291.070312 602.105469 291.070312 602.632812 C 291.070312 603.15625 291.070312 603.003906 290.84375 603.269531 L 290.507812 606.003906 C 290.507812 608.25 290.28125 607.726562 289.910156 608.363281 C 289.121094 609.859375 290.171875 610.160156 289.160156 613.90625 L 288.296875 618.476562 C 287.699219 620.234375 288.558594 622.820312 287.773438 624.207031 L 287.175781 626.003906 C 287.210938 626.527344 287.210938 627.054688 287.175781 627.578125 C 286.949219 628.476562 287.175781 628.140625 286.539062 628.4375 L 286.539062 635.332031 L 285.675781 635.332031 L 285.675781 638.328125 C 284.515625 638.738281 285.1875 637.953125 285 641.324219 C 284.988281 642.988281 284.726562 644.609375 284.214844 646.195312 C 282.867188 649.113281 283.652344 651.585938 282.867188 654.097656 C 282.265625 655.78125 283.167969 658.554688 282.265625 660.164062 C 281.78125 661.027344 282.265625 659.941406 281.816406 660.914062 L 280.957031 667.542969 C 280.90625 668.050781 280.816406 668.550781 280.695312 669.042969 C 279.945312 671.4375 280.695312 671.964844 279.832031 673.574219 C 279.8125 673.648438 279.8125 673.722656 279.832031 673.800781 C 279.308594 675.035156 279.832031 676.046875 279.34375 677.542969 C 278.859375 679.042969 279.34375 677.09375 278.859375 678.855469 C 278.777344 680.105469 278.777344 681.351562 278.859375 682.601562 C 278.671875 684.847656 278.296875 683.011719 277.960938 684.699219 C 277.941406 684.984375 277.941406 685.273438 277.960938 685.558594 C 278.046875 686.203125 277.972656 686.828125 277.734375 687.433594 C 277.472656 688.183594 276.460938 689.71875 277.960938 690.355469 C 278.335938 691.253906 279.570312 690.953125 280.65625 690.953125 C 298.597656 690.691406 316.613281 690.953125 334.558594 690.953125 L 505.246094 690.953125 C 507.082031 690.765625 506.035156 691.214844 506.445312 690.316406 C 507.234375 690.019531 506.707031 690.316406 506.972656 689.679688 C 507.234375 689.042969 506.519531 527.417969 506.972656 525.28125 C 507.195312 524.421875 507.832031 524.007812 508.167969 523.148438 C 508.175781 523.074219 508.175781 522.996094 508.167969 522.921875 L 508.394531 521.347656 C 509.480469 521.347656 509.855469 520.898438 510.117188 520.039062 C 510.378906 519.175781 510.117188 519.363281 510.34375 518.800781 C 510.363281 518.714844 510.363281 518.628906 510.34375 518.539062 C 510.449219 518.421875 510.511719 518.285156 510.527344 518.128906 C 510.527344 518.128906 510.527344 518.128906 510.792969 517.492188 C 511.429688 517.492188 511.015625 517.492188 511.503906 517.265625 L 511.878906 517.042969 C 512.515625 516.480469 512.289062 516.105469 512.289062 515.058594 C 513.078125 514.949219 513.6875 514.5625 514.125 513.894531 L 515.699219 512.398438 C 516.296875 511.574219 516.074219 512.171875 516.074219 510.710938 L 517.007812 510.710938 L 517.007812 509.8125 C 517.644531 509.8125 517.195312 509.8125 517.757812 509.8125 C 518.320312 509.8125 518.507812 508.726562 518.507812 507.566406 C 519.742188 507.566406 520.417969 506.292969 521.28125 505.542969 C 522.140625 504.792969 522.441406 504.679688 522.441406 503.070312 L 523.375 503.070312 C 523.375 501.496094 523.152344 502.734375 524.015625 501.945312 L 524.835938 501.234375 C 524.835938 501.234375 525.0625 500.972656 525.101562 500.859375 L 526.410156 499.476562 C 526.710938 499.25 526.222656 499.476562 527.308594 499.210938 C 527.308594 496.589844 528.546875 497.863281 528.84375 495.878906 C 530.304688 495.878906 529.257812 496.101562 529.894531 495.46875 C 530.53125 494.832031 530.121094 495.878906 530.34375 494.378906 L 531.207031 494.378906 C 531.429688 492.734375 532.253906 492.507812 533.265625 491.308594 C 534.277344 490.109375 533.640625 491.308594 533.640625 489.886719 C 536.113281 489.886719 534.464844 489.097656 535.585938 487.9375 C 536.710938 486.777344 535.585938 487.636719 536.675781 487.488281 C 536.675781 485.953125 537.683594 485.503906 538.621094 484.34375 L 539.222656 483.105469 C 539.632812 482.246094 539.820312 482.355469 540.496094 481.71875 L 541.054688 481.007812 C 541.730469 479.960938 542.03125 479.886719 542.144531 478.835938 L 543.042969 478.835938 C 543.042969 477.488281 543.640625 477.261719 544.242188 476.402344 L 544.578125 475.839844 C 544.953125 475.015625 545.101562 474.605469 546.074219 474.339844 L 546.074219 471.90625 L 547.574219 471.90625 L 547.574219 468.910156 C 549.035156 468.535156 548.25 468.910156 548.546875 467.222656 C 548.578125 467.148438 548.578125 467.074219 548.546875 467 L 548.808594 466.289062 C 548.808594 465.652344 549.035156 465.988281 549.035156 465.015625 L 549.894531 465.015625 C 549.894531 461.867188 551.394531 461.269531 551.394531 458.757812 L 552.519531 458.757812 C 552.519531 457.671875 552.257812 456.738281 553.117188 456.363281 L 553.117188 453.367188 L 554.015625 453.367188 L 554.464844 451.378906 C 554.839844 450.480469 554.839844 449.769531 555.550781 449.433594 L 555.550781 446.175781 L 556.449219 446.175781 C 556.347656 445.429688 556.425781 444.707031 556.675781 444 C 556.9375 443.140625 556.675781 444.527344 557.011719 443.140625 C 557.050781 442.652344 557.050781 442.164062 557.011719 441.679688 L 557.949219 441.679688 L 559.074219 435.574219 C 559.371094 434.449219 559.074219 436.246094 559.449219 434.449219 L 560.347656 434.449219 L 560.347656 430.703125 C 561.132812 430.367188 560.945312 429.769531 560.945312 428.867188 C 561.101562 427.476562 561.488281 426.15625 562.105469 424.898438 L 562.894531 421.789062 L 562.894531 421.601562 C 563.269531 420.515625 562.894531 419.503906 563.492188 418.605469 L 563.753906 418.269531 C 564.355469 417.183594 563.753906 417.480469 564.203125 415.984375 C 564.652344 414.484375 563.980469 415.382812 564.804688 415.046875 L 564.804688 412.050781 L 565.703125 412.050781 L 565.703125 409.691406 L 566.5625 409.691406 L 567.238281 401.898438 L 568.101562 401.898438 L 568.699219 394.148438 L 569.597656 394.148438 L 569.597656 389.652344 C 570.722656 389.316406 570.199219 389.652344 570.460938 388.679688 C 570.722656 387.703125 570.460938 387.554688 571.097656 387.21875 L 571.097656 380.363281 L 572.03125 380.363281 L 572.519531 378.414062 C 572.707031 376.765625 572.707031 375.117188 572.519531 373.46875 C 572.519531 371.898438 572.257812 372.007812 573.417969 371.671875 L 573.417969 367.175781 L 574.355469 367.175781 L 574.355469 361.785156 C 575.179688 361.484375 574.617188 362.007812 574.878906 361.148438 C 574.921875 360.773438 574.921875 360.398438 574.878906 360.023438 C 574.621094 358.011719 574.710938 356.011719 575.140625 354.03125 C 575.367188 353.65625 575.742188 354.03125 575.742188 353.132812 L 575.742188 341.894531 C 572.933594 341.894531 574.84375 342.269531 573.007812 342.492188 L 573.007812 343.390625 C 570.835938 343.617188 572.820312 344.628906 570.609375 344.890625 C 570.605469 345.160156 570.53125 345.40625 570.390625 345.636719 C 570.25 345.863281 570.0625 346.039062 569.824219 346.164062 C 568.398438 346.875 568.25 345.789062 568.175781 347.886719 C 566.789062 347.886719 567.5 347.886719 566.789062 348.261719 L 563.042969 352.007812 C 561.84375 353.132812 561.28125 354.253906 559.597656 354.253906 L 559.597656 355.753906 C 558.398438 355.753906 558.398438 355.753906 557.574219 356.503906 L 555.703125 358.9375 C 554.839844 358.9375 554.652344 359.3125 554.054688 359.949219 L 553.453125 360.546875 L 553.15625 360.847656 C 552.519531 361.410156 552.070312 361.671875 551.992188 362.683594 C 550.570312 362.683594 551.542969 362.683594 550.90625 363.058594 C 550.269531 363.429688 548.621094 364.929688 548.621094 365.679688 L 548.621094 366.539062 C 547.011719 366.539062 546.898438 366.953125 546.039062 367.890625 L 545.4375 368.449219 C 544.988281 368.898438 545.4375 368.449219 544.800781 369.050781 L 544.613281 369.050781 C 544.238281 369.535156 544.203125 369.3125 544.089844 370.285156 C 543.382812 370.378906 542.820312 370.71875 542.40625 371.296875 L 541.804688 371.933594 L 541.804688 372.121094 L 541.46875 372.382812 C 540.867188 372.90625 540.382812 373.171875 540.308594 374.183594 C 539.332031 374.183594 539.59375 374.183594 539.035156 374.742188 L 537.871094 376.617188 C 536.410156 376.617188 537.421875 376.355469 536.785156 377.027344 C 536.148438 377.703125 536.5625 376.542969 536.335938 378.113281 L 534.875 378.113281 C 534.652344 380.289062 534.125 378.75 533.976562 380.472656 C 532.402344 380.472656 532.140625 381.296875 531.09375 382.121094 C 530.042969 382.945312 531.429688 382.421875 530.007812 382.609375 C 529.9375 383.054688 529.769531 383.457031 529.503906 383.820312 C 529.242188 384.183594 528.910156 384.464844 528.507812 384.667969 C 528.132812 384.855469 528.507812 384.855469 527.570312 384.96875 L 527.570312 385.867188 C 527.222656 385.773438 526.871094 385.773438 526.523438 385.867188 L 525.585938 386.429688 C 524.875 387.105469 524.726562 386.992188 524.574219 388.152344 C 522.515625 388.378906 524.949219 388.753906 522.140625 388.753906 C 522.140625 390.25 522.402344 389.164062 521.691406 389.800781 C 520.980469 390.4375 522.179688 390.101562 520.605469 390.25 L 520.605469 391.148438 L 514.988281 394.894531 C 513.488281 396.019531 514.199219 396.019531 511.878906 396.019531 L 511.878906 397.515625 L 508.84375 397.515625 C 508.46875 398.378906 507.496094 398.078125 506.410156 398.078125 C 505.898438 398.117188 505.386719 398.117188 504.875 398.078125 C 503.039062 398.078125 504.085938 398.378906 503.710938 397.515625 L 500.078125 397.515625 L 500.078125 396.582031 C 498.019531 396.394531 500.453125 396.019531 497.644531 396.019531 L 497.644531 395.082031 L 495.285156 395.082031 C 495.285156 393.773438 493.484375 393.546875 492.511719 392.683594 C 491.539062 391.824219 491.726562 392.273438 490.9375 391.898438 C 490.9375 391.898438 490.300781 391.410156 490.265625 391.335938 C 489.703125 390.664062 489.964844 391.675781 489.816406 390.289062 C 488.316406 390.289062 489.402344 390.511719 488.730469 389.839844 C 488.054688 389.164062 488.46875 390.324219 488.316406 388.789062 C 485.507812 388.789062 487.941406 388.414062 485.882812 388.191406 L 485.882812 387.851562 L 484.945312 387.851562 L 484.945312 386.953125 C 483.449219 386.953125 482.8125 386.019531 481.835938 385.007812 L 473.859375 377.253906 C 472.546875 375.941406 471.535156 375.003906 470.113281 373.507812 L 469.402344 372.683594 L 460.300781 364.367188 C 458.765625 362.792969 458.238281 363.28125 457.078125 362.121094 C 456.589844 361.671875 457.078125 362.121094 456.667969 361.632812 C 456.40625 361.222656 456.054688 360.917969 455.613281 360.714844 C 455.171875 360.507812 454.710938 360.441406 454.230469 360.511719 L 454.230469 359.011719 L 451.796875 359.011719 L 451.796875 358.074219 L 448.761719 358.074219 C 448.464844 357.25 448.988281 357.511719 447.265625 357.511719 L 447.265625 356.578125 L 443.894531 356.578125 C 443.59375 355.378906 442.769531 355.566406 441.382812 355.191406 C 440.921875 355.113281 440.460938 355.113281 439.996094 355.191406 L 439.996094 354.292969 C 439.074219 354.292969 438.25 354.003906 437.527344 353.429688 L 436.777344 353.019531 C 435.429688 352.496094 435.164062 352.792969 434.378906 352.382812 L 431.53125 351.296875 L 431.53125 350.398438 L 429.808594 350.058594 L 429.136719 349.761719 L 417.898438 342.941406 C 417.898438 342.941406 417.898438 342.941406 417.710938 342.941406 C 416.625 342.34375 417.410156 342.457031 415.988281 342.304688 L 415.988281 341.40625 C 414.488281 341.40625 415.539062 341.59375 414.902344 340.957031 C 414.265625 340.320312 414.640625 341.40625 414.488281 339.910156 L 412.953125 339.570312 L 412.054688 338.710938 C 411.785156 338.304688 411.433594 337.992188 411 337.773438 C 410.566406 337.550781 410.105469 337.453125 409.621094 337.472656 L 409.621094 335.976562 L 408.085938 335.976562 L 408.085938 334.476562 L 406.4375 334.476562 L 406.4375 333.578125 C 405.011719 333.578125 405.3125 332.792969 404.226562 331.929688 L 402.878906 331.105469 C 402.203125 330.808594 402.878906 330.730469 401.605469 330.582031 C 401.605469 329.160156 401.828125 330.171875 401.191406 329.53125 C 400.554688 328.894531 401.605469 329.234375 400.105469 329.082031 L 400.105469 327.921875 L 398.609375 327.921875 L 398.609375 327.023438 C 396.960938 327.023438 397.746094 326.050781 396.398438 325.636719 C 395.835938 325.414062 395.460938 325.636719 394.863281 325.300781 L 393.140625 324.925781 L 393.140625 324.175781 C 389.957031 324.175781 391.417969 323.652344 389.769531 323.316406 C 387.359375 323.109375 384.949219 323.109375 382.539062 323.316406 L 382.539062 324.175781 L 380.21875 324.175781 L 380.21875 325.339844 C 381.753906 325.523438 380.667969 325.339844 381.304688 325.789062 C 381.941406 326.238281 381.566406 325.339844 381.753906 326.835938 C 383.25 327.023438 382.164062 326.648438 382.800781 327.285156 C 383.4375 327.921875 383.101562 326.835938 383.25 328.335938 L 384.1875 328.335938 L 384.1875 329.269531 C 385.683594 329.269531 384.597656 329.046875 385.234375 329.683594 C 385.871094 330.320312 385.535156 329.269531 385.683594 330.769531 C 387.296875 330.769531 386.023438 330.582031 386.808594 331.40625 C 387.597656 332.230469 386.320312 332.042969 388.121094 332.265625 L 388.121094 333.167969 C 389.582031 333.167969 388.53125 332.941406 389.207031 333.578125 C 389.878906 334.214844 389.46875 333.128906 389.617188 334.664062 C 391.265625 334.664062 389.957031 334.441406 390.78125 335.300781 C 391.605469 336.164062 390.21875 335.9375 392.054688 336.164062 C 392.277344 338.296875 393.289062 336.164062 393.589844 338.558594 L 394.449219 338.558594 L 395.796875 341.144531 C 396.511719 341.558594 395.535156 341.40625 396.886719 341.519531 C 396.886719 343.128906 396.886719 343.242188 398.382812 343.316406 C 398.382812 344.628906 398.609375 345.300781 399.882812 345.414062 C 399.882812 346.3125 400.554688 346.539062 401.082031 347.289062 L 401.53125 348.035156 C 401.792969 348.484375 401.53125 348.035156 401.828125 348.5625 C 402.128906 349.085938 402.914062 349.234375 402.914062 350.808594 L 403.851562 350.808594 C 403.851562 351.933594 404.113281 351.671875 404.714844 352.308594 C 405.3125 352.945312 405.351562 352.308594 405.351562 354.140625 C 406.921875 354.140625 406.546875 354.855469 406.960938 355.789062 L 409.394531 359.722656 C 409.769531 360.511719 410.558594 360.773438 410.742188 361.632812 C 410.78125 361.921875 410.78125 362.207031 410.742188 362.496094 L 411.605469 362.496094 C 411.832031 364.253906 411.605469 362.496094 412.054688 363.617188 L 414.152344 367.363281 C 414.472656 368.199219 414.886719 368.984375 415.386719 369.722656 C 415.675781 369.953125 415.882812 370.238281 416.019531 370.578125 C 416.152344 370.921875 416.191406 371.273438 416.136719 371.632812 L 417.074219 371.632812 C 416.960938 372.691406 417.171875 373.675781 417.710938 374.59375 L 419.023438 377.214844 L 421.457031 382.308594 C 422.128906 384.519531 421.269531 385.34375 423.328125 385.570312 L 423.328125 388.902344 C 423.855469 388.902344 424.453125 390.175781 424.679688 390.8125 L 425.128906 392.796875 C 425.128906 392.796875 425.128906 392.796875 425.128906 393.023438 L 426.175781 395.792969 C 426.230469 396.28125 426.230469 396.769531 426.175781 397.253906 L 427.074219 397.253906 L 427.785156 402.273438 C 428.273438 403.882812 428.421875 402.273438 428.609375 405.382812 C 428.609375 406.804688 429.960938 410.664062 430.070312 411.9375 L 430.558594 413.625 C 430.933594 414.261719 431.046875 413.136719 430.96875 417.03125 C 430.894531 420.925781 431.644531 418.867188 431.644531 424.523438 L 432.507812 424.523438 L 432.507812 427.21875 L 431.308594 427.21875 L 431.308594 425.722656 L 430.371094 425.722656 L 427.5625 418.605469 C 427.5625 418.605469 427.5625 418.605469 427.5625 418.378906 C 426.8125 416.433594 424.976562 414.636719 424.976562 412.539062 L 424.117188 412.539062 C 424.117188 409.765625 423.703125 412.164062 423.441406 410.140625 L 422.582031 410.140625 L 422.054688 408.003906 C 421.382812 406.019531 421.605469 406.804688 420.632812 405.496094 C 419.660156 404.183594 420.40625 405.121094 420.144531 404.445312 C 419.882812 403.773438 419.847656 403.398438 418.648438 403.246094 L 418.648438 400.886719 C 417.449219 400.4375 416.324219 397.667969 415.164062 396.167969 C 414.003906 394.671875 414.191406 393.695312 413.179688 392.761719 L 410.519531 388.789062 C 410.105469 387.777344 410.519531 389.425781 410.144531 387.664062 L 409.246094 387.664062 L 409.058594 386.390625 C 409.046875 386.316406 409.046875 386.242188 409.058594 386.167969 C 408.234375 384.894531 407.785156 385.792969 407.785156 383.769531 L 406.886719 383.769531 C 406.699219 382.160156 405.351562 381.410156 404.339844 380.023438 C 403.890625 379.464844 404.339844 380.210938 404 379.464844 C 403.90625 379.113281 403.90625 378.765625 404 378.414062 L 403.101562 378.414062 C 403.101562 376.914062 403.328125 377.964844 402.652344 377.328125 C 401.980469 376.691406 403.101562 377.066406 401.566406 376.914062 L 401.566406 375.980469 C 401.566406 375.191406 400.707031 374.816406 400.03125 373.957031 L 397.632812 370.921875 C 396.921875 370.097656 397.035156 369.351562 396.136719 368.789062 C 395.238281 368.226562 395.761719 368.5625 395.050781 367.476562 C 394.5625 366.878906 395.050781 366.988281 393.8125 366.839844 L 393.363281 365.753906 L 393.0625 365.417969 C 392.671875 364.890625 392.148438 364.625 391.492188 364.628906 L 391.492188 363.132812 L 389.957031 363.132812 C 389.957031 361.96875 390.144531 362.046875 389.46875 361.257812 C 388.792969 360.472656 389.46875 361.257812 389.019531 360.847656 L 389.019531 360.660156 L 387.746094 359.535156 C 387.332031 359.050781 387.257812 359.234375 387.144531 358.300781 C 385.5 358.300781 386.847656 358.300781 385.984375 357.664062 C 385.125 357.027344 386.546875 357.027344 384.75 356.800781 L 384.75 355.304688 L 383.25 355.304688 L 383.25 353.804688 C 381.304688 353.804688 382.203125 354.03125 381.601562 352.757812 C 381.496094 352.367188 381.28125 352.046875 380.964844 351.796875 C 380.644531 351.546875 380.285156 351.417969 379.878906 351.40625 L 379.878906 350.398438 C 378.15625 350.398438 377.820312 350.023438 377.78125 348.300781 L 375.945312 348 L 375.945312 346.652344 C 375.339844 346.703125 374.777344 346.566406 374.261719 346.238281 L 374 345.902344 L 372.5 344.367188 C 372.5 344.367188 372.5 344.367188 372.3125 344.367188 L 370.179688 342.644531 C 369.128906 342.230469 370.738281 342.417969 369.015625 342.269531 L 369.015625 341.371094 C 367.367188 341.371094 368.71875 341.371094 367.855469 340.734375 C 366.996094 340.097656 368.378906 340.058594 366.582031 339.871094 C 366.394531 338.261719 366.769531 339.535156 365.90625 338.746094 C 365.046875 337.960938 365.234375 339.234375 365.085938 337.4375 C 362.386719 337.4375 363.734375 335.9375 361.339844 335.9375 L 361.339844 334.441406 L 359.800781 334.441406 L 359.800781 333.539062 C 358.191406 333.539062 358.902344 332.941406 357.21875 331.929688 L 355.421875 330.695312 C 353.585938 329.796875 352.609375 327.921875 350.851562 327.136719 C 349.988281 326.761719 350.851562 326.875 349.539062 326.6875 L 349.539062 325.789062 L 346.503906 325.789062 L 346.503906 324.175781 L 344.40625 324.175781 C 344.035156 323.269531 343.421875 322.570312 342.574219 322.078125 L 341.335938 321.554688 C 340.511719 321.21875 341.335938 321.554688 340.625 321.292969 C 340.261719 321.234375 339.902344 321.234375 339.539062 321.292969 C 339.539062 319.792969 339.015625 319.90625 338.226562 319.570312 C 337.570312 319.242188 336.972656 318.828125 336.429688 318.332031 L 335.980469 318.109375 C 335.117188 317.695312 334.445312 317.847656 334.257812 316.5 C 332.421875 316.5 333.246094 316.5 332.046875 315.710938 C 330.847656 314.925781 330.472656 315.375 330.363281 314.101562 C 328.375 314.101562 329.351562 314.101562 328.113281 313.351562 L 327.027344 312.941406 C 327.027344 312.941406 327.027344 312.941406 326.390625 312.714844 C 326.089844 312.664062 325.792969 312.664062 325.492188 312.714844 C 325.492188 311.480469 325.492188 312.492188 324.929688 311.21875 L 322.496094 311.21875 L 322.496094 310.355469 C 320.960938 310.355469 319.6875 308.855469 317.625 308.855469 L 317.625 307.957031 C 314.929688 307.957031 317.363281 307.359375 314.59375 307.359375 L 314.59375 306.460938 C 313.65625 306.480469 312.804688 306.21875 312.046875 305.671875 C 311.332031 305.222656 312.496094 305.859375 311.671875 305.449219 L 309.386719 304.699219 L 304.480469 303.574219 L 304.480469 302.675781 C 303.804688 302.789062 303.128906 302.789062 302.457031 302.675781 L 298.710938 301.441406 C 298.1875 301.441406 298.148438 301.441406 297.699219 301.441406 C 297.25 301.441406 297.4375 301.441406 296.988281 301.214844 C 296.539062 300.992188 297.289062 301.214844 296.3125 300.730469 C 295.675781 300.539062 295.027344 300.464844 294.367188 300.503906 C 294.078125 300.558594 293.792969 300.558594 293.503906 300.503906 C 292.496094 300.167969 291.457031 299.996094 290.394531 299.980469 L 290.394531 299.042969 L 284.964844 299.042969 C 284.363281 296.796875 282.191406 297.730469 279.496094 297.621094 C 276.796875 297.507812 279.269531 297.171875 277.0625 296.722656 C 276.460938 296.683594 275.863281 296.683594 275.261719 296.722656 C 273.425781 296.535156 274.402344 296.984375 274.0625 296.046875 L 270.132812 296.046875 C 269.832031 294.921875 268.933594 294.847656 268.632812 293.722656 C 269.214844 292.269531 270.199219 291.183594 271.59375 290.464844 C 271.800781 290.402344 272.003906 290.316406 272.191406 290.203125 L 272.417969 290.203125 L 273.128906 289.679688 C 273.277344 289.535156 273.4375 289.410156 273.613281 289.304688 L 274.214844 289.003906 C 275.1875 288.519531 275.675781 287.957031 276.835938 287.957031 L 276.835938 287.132812 C 277.792969 287.195312 278.664062 286.960938 279.457031 286.421875 L 287.546875 283.910156 L 287.773438 283.910156 C 290.132812 283.085938 292.417969 283.910156 294.476562 282.488281 C 296.539062 281.0625 297.101562 282.488281 298.449219 281.027344 C 299.796875 279.566406 298.449219 280.726562 299.871094 280.277344 C 301.296875 279.828125 301.558594 278.964844 302.832031 278.777344 C 303.054688 276.757812 303.429688 279.152344 303.429688 276.382812 L 304.367188 276.382812 L 304.367188 269.789062 L 303.429688 269.789062 C 303.429688 267.054688 302.832031 269.527344 302.832031 266.792969 L 301.933594 266.792969 L 301.933594 265.480469 C 301.933594 265.480469 301.933594 265.480469 301.933594 265.292969 L 301.484375 264.808594 C 300.582031 263.871094 300.660156 264.808594 300.660156 262.898438 L 299.796875 262.898438 C 299.796875 261.4375 300.023438 262.484375 299.386719 261.8125 C 298.75 261.136719 299.796875 261.550781 298.296875 261.398438 L 298.296875 259.640625 L 296.800781 259.640625 C 296.800781 257.503906 296.800781 258.664062 295.902344 257.765625 C 295.003906 256.867188 295.378906 256.640625 294.925781 256.003906 C 294.066406 254.65625 292.828125 254.769531 292.828125 252.710938 L 291.929688 252.710938 C 291.929688 251.171875 292.191406 252.183594 291.332031 251.808594 L 291.929688 249.414062 C 291.21875 249.152344 291.144531 248.550781 291.257812 247.691406 C 291.632812 245.179688 293.316406 243.945312 293.765625 242.222656 L 294.925781 242.222656 C 295.339844 243.308594 295.378906 242.222656 295.527344 243.71875 C 297.585938 243.945312 295.152344 244.320312 297.960938 244.320312 L 297.960938 245.21875 C 299.648438 245.21875 298.335938 245.890625 301.109375 248.699219 L 301.933594 249.414062 C 302.304688 249.636719 301.933594 249.636719 302.832031 249.710938 C 303.054688 251.960938 303.167969 249.261719 303.429688 251.511719 C 304.441406 251.511719 303.953125 251.511719 304.292969 251.808594 L 305.492188 253.046875 C 305.828125 253.53125 305.714844 252.523438 305.863281 253.90625 C 307.324219 253.90625 306.316406 253.683594 306.953125 254.320312 C 307.589844 254.957031 307.175781 253.90625 307.363281 255.40625 C 308.414062 255.40625 307.851562 255.40625 308.226562 255.707031 L 309.421875 256.941406 C 309.6875 257.390625 309.609375 256.417969 309.761719 257.804688 L 311.257812 257.804688 L 311.257812 259.300781 C 312.792969 259.300781 311.707031 259.078125 312.34375 259.75 C 312.980469 260.425781 312.605469 259.300781 312.792969 260.800781 L 313.695312 260.800781 L 313.695312 261.734375 C 315.230469 261.734375 314.144531 261.511719 314.78125 262.148438 C 315.417969 262.785156 315.042969 261.660156 315.230469 263.234375 C 317.476562 263.421875 314.742188 263.535156 317.066406 263.796875 C 317.25 266.042969 317.363281 263.308594 317.664062 265.632812 C 319.125 265.632812 318.074219 265.371094 318.710938 266.042969 C 319.347656 266.71875 319.011719 265.554688 319.164062 267.128906 C 320.511719 267.128906 320.472656 267.804688 321.371094 268.777344 L 322.832031 269.75 C 323.695312 270.050781 322.421875 269.75 323.957031 270.125 L 323.957031 270.988281 L 324.894531 270.988281 C 324.894531 272.484375 324.667969 271.398438 325.304688 272.035156 C 325.941406 272.671875 324.894531 272.300781 326.390625 272.484375 L 326.390625 273.386719 C 326.800781 273.328125 327.199219 273.382812 327.582031 273.542969 C 327.964844 273.703125 328.277344 273.953125 328.527344 274.285156 C 329.363281 275 330.261719 275.621094 331.222656 276.15625 C 331.304688 276.265625 331.40625 276.351562 331.523438 276.417969 L 331.972656 276.867188 C 332.609375 277.355469 331.972656 276.867188 332.945312 277.394531 C 333.019531 277.429688 333.097656 277.429688 333.171875 277.394531 L 334.292969 278.667969 L 349.277344 278.667969 L 349.277344 277.765625 C 351.40625 277.777344 353.480469 277.441406 355.496094 276.757812 C 356.957031 275.894531 358.640625 276.757812 360.402344 275.933594 L 360.851562 275.933594 L 362.199219 275.445312 L 362.425781 275.445312 C 363.546875 274.957031 363.625 275.445312 365.234375 274.957031 L 368.304688 273.757812 C 370.476562 273.199219 368.644531 274.246094 371.453125 272.972656 C 372.464844 272.449219 374.375 272.972656 375.386719 272.375 C 376.394531 271.773438 376.359375 272.375 376.660156 271.210938 L 379.65625 271.210938 L 379.65625 270.351562 L 386.472656 268.703125 L 386.695312 268.703125 C 386.695312 268.703125 386.695312 268.703125 386.921875 268.703125 L 388.382812 268.328125 C 389.84375 267.953125 389.730469 267.542969 391.453125 267.542969 L 391.453125 266.644531 C 393.25 266.585938 394.949219 266.148438 396.546875 265.332031 C 397.296875 264.957031 397.710938 265.144531 398.757812 265.144531 L 398.757812 264.207031 C 399.503906 264.320312 400.234375 264.261719 400.953125 264.03125 C 401.671875 263.800781 402.300781 263.421875 402.839844 262.898438 L 403.140625 262.558594 L 405.648438 259.675781 C 405.6875 259.386719 405.6875 259.101562 405.648438 258.8125 L 406.363281 258.8125 C 407.558594 257.953125 406.363281 257.128906 407.859375 256.679688 L 407.859375 253.683594 C 410.144531 253.082031 409.058594 251.621094 409.433594 249.9375 C 409.433594 249.375 409.433594 249.601562 409.695312 249.300781 L 409.996094 248.964844 C 410.253906 248.3125 410.378906 247.640625 410.371094 246.941406 L 410.632812 246.003906 C 410.628906 245.941406 410.628906 245.878906 410.632812 245.816406 L 411.082031 244.132812 C 411.679688 242.746094 411.492188 244.992188 411.792969 240.945312 C 411.792969 239.597656 413.140625 236.191406 413.292969 234.878906 C 413.125 233.375 413.335938 231.925781 413.929688 230.535156 C 414.523438 227.484375 414.660156 224.414062 414.339844 221.320312 C 414.339844 220.308594 413.890625 220.722656 413.628906 220.195312 C 413.375 219.59375 413.296875 218.96875 413.402344 218.324219 L 411.90625 218.324219 L 411.90625 217.425781 C 410.59375 217.425781 410.480469 216.714844 409.46875 216.1875 L 407.035156 215.925781 L 407.035156 214.988281 C 406.277344 215.003906 405.554688 214.851562 404.863281 214.539062 L 398.945312 211.804688 C 397.863281 211.253906 396.714844 210.976562 395.5 210.980469 C 395.5 209.820312 395.5 210.308594 395.164062 209.484375 C 394.675781 209.539062 394.1875 209.539062 393.703125 209.484375 L 393.476562 209.484375 L 387.78125 207.085938 C 387.78125 207.085938 387.597656 207.085938 387.558594 207.085938 L 387.332031 207.085938 C 387.109375 207.085938 387.332031 207.085938 386.621094 206.863281 C 386.359375 206.808594 386.097656 206.808594 385.835938 206.863281 L 385.835938 206 C 383.699219 206 384.410156 205.363281 381.863281 205.363281 L 381.863281 204.316406 L 380.367188 204.316406 L 380.367188 203.414062 C 379.691406 203.511719 379.019531 203.511719 378.34375 203.414062 L 376.433594 202.964844 L 376.433594 202.066406 C 375.488281 202.074219 374.613281 201.824219 373.8125 201.320312 L 373.289062 200.945312 C 372.546875 200.617188 371.773438 200.492188 370.964844 200.570312 L 370.964844 199.671875 C 370.679688 199.707031 370.390625 199.707031 370.105469 199.671875 C 369.015625 199.484375 369.542969 199.296875 368.269531 199.144531 C 367.929688 199.144531 367.40625 199.144531 367.070312 199.144531 L 367.070312 198.246094 L 360.703125 195.8125 L 360.253906 195.8125 L 358.265625 195.398438 L 358.265625 194.464844 C 357.589844 194.453125 356.941406 194.316406 356.320312 194.050781 L 352.796875 192.964844 L 352.796875 192.066406 C 352.523438 192.121094 352.25 192.121094 351.972656 192.066406 L 351.488281 191.878906 C 350.25 191.503906 352.3125 192.179688 351.113281 191.878906 C 350.390625 191.664062 349.652344 191.589844 348.902344 191.65625 L 348.902344 190.753906 C 347.179688 190.753906 347.703125 191.019531 347.40625 190.15625 L 344.96875 190.15625 C 344.746094 188.246094 343.398438 188.621094 341.9375 188.097656 L 338.675781 186.785156 C 337.179688 186.371094 337.664062 185.511719 335.570312 185.398438 C 334.625 185.238281 333.753906 184.902344 332.945312 184.386719 L 329.199219 182.890625 L 328.5625 182.664062 L 325.191406 181.503906 L 325.191406 180.605469 C 324.53125 180.679688 323.871094 180.679688 323.207031 180.605469 L 322.347656 180.230469 C 321.984375 180.167969 321.621094 180.167969 321.261719 180.230469 L 321.261719 179.332031 C 320.804688 179.390625 320.367188 179.328125 319.949219 179.144531 L 318.976562 178.621094 L 318.789062 178.621094 L 318.039062 178.171875 C 316.578125 177.609375 316.839844 178.171875 315.304688 177.269531 C 314.25 176.652344 313.113281 176.390625 311.894531 176.484375 L 311.894531 175.546875 L 310.359375 175.285156 L 309.949219 175.285156 C 309.648438 175.160156 309.335938 175.074219 309.011719 175.023438 C 307.886719 174.648438 307.8125 174.273438 306.839844 173.789062 C 305.863281 173.300781 304.589844 173.789062 304.21875 172.8125 L 301.78125 172.8125 C 301.78125 171.316406 299.386719 170.867188 298.375 170.566406 C 297.710938 170.472656 297.050781 170.472656 296.386719 170.566406 L 296.386719 169.628906 L 291.332031 167.980469 L 290.917969 167.980469 C 290.917969 167.980469 290.917969 167.980469 290.695312 167.980469 L 290.46875 167.980469 L 287.175781 166.78125 C 287.097656 166.738281 287.023438 166.738281 286.949219 166.78125 L 282.902344 165.695312 C 280.917969 165.507812 282.265625 165.695312 281.179688 165.023438 C 280.117188 164.496094 278.992188 164.183594 277.808594 164.085938 C 275.945312 163.199219 274 162.933594 271.964844 163.300781 C 270.09375 163.5625 271.964844 163.300781 270.730469 163.824219 C 269.496094 164.347656 269.269531 164.160156 267.695312 164.160156 C 265 164.160156 267.433594 164.648438 265 164.796875 C 262.566406 164.949219 263.875 164.460938 261.890625 165.546875 C 261.679688 165.667969 261.453125 165.753906 261.214844 165.808594 C 259.984375 166.046875 258.898438 166.585938 257.957031 167.417969 L 257.394531 168.019531 C 256.851562 168.464844 256.226562 168.652344 255.523438 168.582031 Z M 255.222656 166.859375 " fill-opacity="1" fill-rule="evenodd"/></g><path fill="#1800ad" d="M 491.839844 187.160156 C 490.976562 187.160156 490.300781 187.160156 489.742188 187.796875 C 489.179688 188.433594 489.515625 187.796875 489.402344 188.65625 L 488.503906 188.65625 C 488.503906 190.15625 488.765625 189.109375 488.054688 189.746094 C 487.34375 190.382812 488.542969 190.007812 487.007812 190.15625 C 486.78125 192.253906 486.183594 189.894531 486.105469 192.554688 C 484.460938 192.554688 484.722656 192.851562 484.273438 194.050781 C 484.273438 194.5 484.273438 193.527344 483.972656 194.988281 C 482.921875 194.988281 482.660156 195.738281 482.285156 196.597656 C 481.914062 197.460938 481.089844 197.871094 480.453125 198.660156 C 480.472656 198.734375 480.472656 198.808594 480.453125 198.882812 C 480.453125 198.882812 480.453125 198.882812 480.453125 199.109375 C 480.359375 199.484375 480.359375 199.859375 480.453125 200.230469 L 479.515625 200.230469 C 479.515625 201.769531 479.816406 200.570312 478.503906 201.617188 L 477.792969 202.367188 L 477.792969 202.59375 L 477.453125 203.117188 L 477.230469 203.566406 C 476.742188 204.464844 475.996094 204.800781 475.394531 205.664062 L 472.097656 209.820312 C 471.425781 210.90625 471.460938 210.457031 471.3125 211.730469 L 470.375 211.730469 C 470.375 213.828125 469.738281 212.855469 469.101562 214.316406 C 468.800781 214.953125 468.878906 214.839844 468.878906 215.664062 C 467.417969 215.664062 468.429688 215.441406 467.792969 216.078125 C 467.152344 216.714844 467.527344 215.664062 467.339844 217.164062 L 466.480469 217.164062 C 466.480469 219.148438 465.617188 218.773438 464.980469 220.195312 L 463.558594 222.332031 C 462.660156 224.015625 461.046875 225.179688 460 226.9375 L 458.914062 228.210938 L 458.914062 228.4375 L 457.152344 230.683594 C 456.480469 231.621094 456.515625 232.144531 455.617188 233.007812 C 454.71875 233.867188 454.230469 233.90625 454.230469 235.554688 L 453.332031 235.554688 L 453.332031 236.488281 L 452.394531 236.488281 C 452.394531 239.222656 452.023438 236.863281 451.835938 238.886719 L 450.898438 238.886719 C 450.898438 241.621094 449.398438 239.972656 449.398438 242.632812 L 447.863281 242.632812 L 447.863281 244.132812 L 447.003906 244.132812 C 447.003906 246.902344 446.628906 244.507812 446.367188 246.527344 L 445.503906 246.527344 L 445.503906 248.027344 C 443.96875 248.027344 445.054688 247.800781 444.417969 248.476562 C 443.78125 249.152344 444.15625 248.027344 443.96875 249.523438 L 443.070312 249.523438 C 443.070312 252.296875 442.695312 249.898438 442.46875 251.921875 L 441.535156 251.921875 L 441.535156 252.859375 L 440.636719 252.859375 C 440.636719 253.871094 440.636719 253.757812 440.371094 254.355469 L 439.285156 254.769531 C 439.285156 256.003906 438.910156 255.59375 438.386719 256.566406 L 437.789062 258.703125 L 436.851562 258.703125 C 436.664062 260.949219 436.550781 258.214844 436.289062 260.460938 L 435.351562 260.460938 L 435.351562 261.960938 C 433.890625 261.960938 434.941406 261.734375 434.265625 262.371094 C 433.59375 263.007812 434.003906 261.960938 433.855469 263.457031 L 432.992188 263.457031 C 432.992188 266.230469 432.542969 263.832031 432.320312 265.855469 L 431.457031 265.855469 L 431.457031 267.355469 L 430.558594 267.355469 C 430.371094 268.851562 430.746094 267.804688 430.109375 268.441406 C 429.472656 269.078125 430.558594 268.703125 429.023438 268.851562 C 429.023438 269.714844 429.023438 269.789062 428.796875 270.464844 C 428.574219 271.136719 428.386719 271.175781 427.523438 271.289062 C 427.5625 271.5625 427.5625 271.835938 427.523438 272.113281 L 425.914062 274.097656 C 424.902344 275.03125 424.566406 275.03125 424.566406 276.605469 L 423.628906 276.605469 C 423.441406 278.441406 421.417969 279.527344 420.558594 281.402344 C 420.332031 281.960938 420.558594 281.402344 420.296875 282.039062 L 419.359375 282.898438 C 418.347656 283.796875 418.199219 283.535156 418.199219 285.332031 C 416.738281 285.519531 417.75 285.332031 417.113281 285.78125 C 416.476562 286.234375 416.851562 285.332031 416.664062 286.832031 C 416.324219 286.882812 416.019531 287.015625 415.75 287.230469 C 415.484375 287.445312 415.289062 287.710938 415.164062 288.03125 C 414.453125 289.453125 412.878906 290.464844 412.019531 291.777344 L 411.792969 292.152344 C 411.808594 292.226562 411.808594 292.300781 411.792969 292.375 L 411.007812 293.386719 C 410.914062 293.585938 410.789062 293.761719 410.632812 293.910156 L 410.21875 294.398438 L 410.03125 294.398438 C 409.359375 295.257812 409.546875 294.136719 409.507812 295.894531 C 408.308594 295.894531 408.796875 295.894531 408.011719 296.234375 C 408.089844 296.882812 408.027344 297.519531 407.824219 298.144531 L 406.472656 298.894531 L 406.472656 301.328125 C 404.976562 301.890625 405.574219 305.710938 405.574219 307.058594 C 405.5 307.78125 405.5 308.507812 405.574219 309.230469 L 406.101562 311.179688 C 407.035156 313.6875 407.859375 312.488281 407.859375 314.925781 L 408.757812 314.925781 C 408.757812 318.671875 410.296875 315.410156 410.296875 318.671875 L 411.792969 318.671875 L 411.792969 320.429688 L 412.65625 320.429688 L 412.65625 321.929688 L 414.152344 321.929688 C 414.453125 324.066406 415.464844 322.117188 415.6875 324.289062 L 416.585938 324.289062 L 416.585938 325.1875 C 417 325.140625 417.398438 325.203125 417.78125 325.367188 C 418.164062 325.535156 418.476562 325.789062 418.722656 326.125 C 419.359375 326.796875 419.285156 327.171875 420.558594 327.285156 C 420.558594 328.257812 420.859375 328.296875 421.417969 328.859375 C 421.980469 329.347656 421.792969 329.457031 422.84375 329.53125 L 422.84375 330.46875 L 425.652344 331.894531 C 425.855469 331.96875 426.058594 332.058594 426.25 332.15625 C 427.113281 332.753906 427.039062 333.277344 428.273438 333.464844 L 428.273438 334.363281 C 430.523438 334.363281 430.410156 335.636719 432.019531 335.863281 L 432.019531 336.761719 C 434.792969 336.761719 432.28125 337.363281 435.054688 337.363281 L 435.054688 338.261719 C 435.71875 338.28125 436.292969 338.515625 436.777344 338.972656 L 437.527344 339.382812 C 437.527344 339.382812 437.527344 339.382812 437.714844 339.382812 C 437.902344 339.382812 437.714844 339.382812 437.9375 339.382812 L 442.359375 340.996094 L 442.359375 341.894531 C 443.742188 341.894531 445.765625 342.15625 446.105469 343.390625 L 450.035156 343.390625 L 450.035156 344.292969 C 453.78125 344.292969 451.984375 344.292969 453.59375 343.617188 C 455.207031 342.941406 455.992188 343.617188 457.117188 343.242188 L 459.0625 342.117188 C 461.347656 341.21875 460.074219 341.480469 461.460938 340.621094 L 461.871094 340.621094 C 461.949219 340.585938 462.023438 340.585938 462.097656 340.621094 C 464.792969 338.5 467.164062 336.066406 469.214844 333.316406 C 469.214844 333.316406 469.214844 333.316406 469.214844 333.128906 L 470.527344 331.742188 L 471.574219 330.695312 C 471.761719 330.320312 471.761719 330.695312 471.875 329.757812 C 473.558594 329.757812 472.625 328.597656 475.996094 325.449219 L 476.40625 325 L 479.328125 322.191406 C 479.328125 322.191406 479.328125 322.191406 479.328125 322.003906 L 479.628906 320.507812 L 481.125 320.507812 C 481.351562 318.257812 481.875 319.832031 482.023438 318.109375 C 483.558594 318.109375 482.472656 318.332031 483.109375 317.695312 C 483.746094 317.058594 483.410156 318.109375 483.558594 316.609375 L 484.460938 316.609375 C 484.644531 315.113281 484.460938 316.199219 484.910156 315.523438 C 485.359375 314.851562 484.460938 315.261719 485.996094 315.113281 C 485.996094 313.875 486.742188 314.027344 487.378906 312.902344 C 487.496094 312.695312 487.59375 312.484375 487.679688 312.265625 L 488.542969 311.367188 C 489.515625 310.394531 491.125 309.417969 491.3125 308.109375 C 492.738281 307.882812 491.726562 308.296875 492.363281 307.660156 C 493 307.023438 492.664062 308.109375 492.8125 306.609375 C 495.132812 306.308594 493.898438 303.800781 496.109375 303.613281 C 496.109375 302.265625 497.195312 302.039062 498.054688 301.027344 L 498.65625 300.390625 C 499.179688 299.90625 499.066406 299.792969 500.042969 299.679688 C 500.265625 297.65625 500.640625 300.015625 500.640625 297.28125 C 501.6875 297.28125 501.390625 297.28125 501.953125 296.757812 L 502.738281 295.785156 C 502.960938 295.410156 502.960938 295.785156 503.074219 294.886719 C 504.609375 294.886719 503.523438 295.074219 504.160156 294.4375 C 504.796875 293.800781 504.421875 294.921875 504.609375 293.386719 L 505.511719 293.386719 C 505.511719 292.5625 505.511719 292.75 505.734375 292.078125 C 506.332031 290.804688 508.394531 289.417969 509.480469 288.332031 L 509.667969 288.332031 L 510.792969 286.457031 C 511.015625 285.820312 510.792969 286.945312 511.015625 285.785156 C 512.476562 285.785156 511.429688 285.972656 512.101562 285.335938 C 512.777344 284.699219 512.363281 285.785156 512.515625 284.285156 L 513.375 284.285156 L 513.375 282.972656 C 514.910156 282.972656 513.824219 283.199219 514.460938 282.5625 C 515.097656 281.925781 514.722656 282.972656 514.910156 281.476562 L 515.808594 281.476562 C 515.808594 279.714844 516.261719 279.867188 517.382812 278.816406 C 518.359375 277.878906 518.695312 277.878906 518.695312 276.230469 C 519.046875 276.179688 519.382812 276.066406 519.691406 275.890625 C 520.003906 275.714844 520.273438 275.488281 520.496094 275.210938 C 520.722656 274.933594 520.890625 274.621094 521 274.28125 C 521.109375 273.941406 521.152344 273.59375 521.128906 273.234375 C 522.628906 273.234375 522.027344 273.234375 522.851562 272.523438 L 524.914062 269.527344 C 525.5625 268.398438 526.375 267.398438 527.347656 266.53125 L 527.683594 266.230469 C 528.65625 265.21875 529.03125 265.40625 529.03125 263.648438 C 530.53125 263.648438 530.15625 262.972656 530.644531 262 C 531.128906 261.023438 530.644531 262 530.980469 261.472656 C 531.316406 260.949219 531.953125 260.648438 532.027344 259.75 L 532.929688 259.75 C 532.929688 256.679688 533.789062 259.75 533.828125 256.753906 C 535.511719 256.753906 534.800781 257.054688 535.398438 255.929688 L 535.925781 253.757812 L 536.859375 253.757812 C 536.859375 252.484375 537.347656 252.523438 537.722656 251.921875 L 537.945312 251.546875 C 538.246094 251.023438 538.246094 251.546875 538.359375 250.5 L 539.296875 250.5 C 539.296875 247.765625 539.894531 250.238281 539.894531 247.503906 L 540.792969 247.503906 C 540.980469 246.152344 541.242188 246.265625 541.65625 245.628906 L 541.878906 245.253906 C 542.140625 244.691406 542.140625 245.253906 542.328125 244.167969 L 543.230469 244.167969 C 543.210938 243.882812 543.210938 243.59375 543.230469 243.308594 C 543.257812 243.070312 543.34375 242.859375 543.492188 242.671875 C 543.492188 242.671875 543.828125 242.371094 543.976562 242.257812 C 544.128906 242.144531 543.976562 242.257812 544.425781 241.773438 L 546.375 237.6875 C 548.472656 233.941406 547.648438 234.355469 547.648438 226.453125 C 547.925781 224.617188 547.863281 222.792969 547.460938 220.984375 C 547.332031 220.8125 547.179688 220.664062 547.011719 220.535156 C 546.523438 220.160156 547.011719 220.308594 546.148438 220.195312 L 546.148438 216.449219 L 545.214844 216.449219 C 545.265625 215.996094 545.203125 215.558594 545.027344 215.140625 C 545.027344 215.140625 545.027344 215.140625 545.027344 214.878906 L 544.503906 213.640625 C 544.476562 213.578125 544.476562 213.515625 544.503906 213.453125 L 543.527344 211.394531 L 542.328125 208.398438 C 541.691406 206.523438 540.71875 206.449219 539.78125 204.050781 L 539.296875 203.042969 C 538.660156 202.03125 538.320312 202.179688 537.910156 201.054688 C 537.496094 199.933594 537.910156 200.15625 536.824219 199.707031 C 536.484375 199.707031 536.824219 199.707031 536.113281 199.707031 C 536.207031 199.332031 536.207031 198.957031 536.113281 198.582031 L 534.949219 197.085938 L 534.5 196.597656 C 534.296875 196.414062 534.085938 196.238281 533.863281 196.074219 L 533.675781 196.074219 L 532.929688 195.0625 C 532.929688 195.0625 532.929688 195.0625 532.929688 194.839844 C 532.871094 194.5625 532.871094 194.289062 532.929688 194.015625 L 531.429688 194.015625 C 531.429688 192.589844 531.652344 193.601562 530.980469 192.964844 C 530.304688 192.328125 531.429688 192.703125 529.929688 192.515625 C 529.707031 190.941406 529.929688 192.214844 529.21875 191.390625 C 528.507812 190.566406 528.582031 191.953125 528.394531 190.117188 L 527.496094 190.117188 C 527.308594 188.695312 527.496094 189.707031 527.046875 189.070312 C 526.597656 188.433594 527.496094 188.84375 525.960938 188.621094 L 525.960938 187.757812 L 522.554688 187.757812 L 522.554688 186.261719 L 520.457031 186.261719 C 520.398438 185.957031 520.269531 185.6875 520.070312 185.453125 C 519.867188 185.21875 519.621094 185.050781 519.332031 184.949219 L 518.46875 184.613281 L 518.28125 184.613281 C 517.609375 184.238281 518.28125 184.613281 517.683594 184.238281 C 517.085938 183.863281 517.683594 184.238281 517.046875 184.011719 L 510.792969 182.476562 L 510.792969 181.578125 C 507.558594 181.390625 504.324219 181.390625 501.089844 181.578125 C 499.929688 181.804688 501.089844 181.578125 500.078125 182.066406 L 496.820312 183.902344 C 495.433594 185.175781 496.035156 184.835938 494.496094 185.550781 C 493.9375 185.8125 494.496094 185.550781 493.9375 185.847656 L 493.75 186.035156 L 493.300781 186.523438 C 492.625 187.160156 492.0625 187.460938 491.949219 188.433594 Z M 491.839844 187.160156 " fill-opacity="1" fill-rule="evenodd"/><g clip-path="url(#c9c3aa709a)"><path fill="#1800ad" d="M 561.734375 248.589844 L 556.9375 248.589844 C 556.601562 249.300781 556.339844 249.113281 556.113281 249.300781 L 555.738281 249.5625 C 554.804688 250.085938 555.738281 250.085938 553.902344 250.085938 L 553.902344 250.984375 C 552.40625 250.984375 553.042969 250.800781 552.179688 251.4375 L 551.132812 252.445312 C 549.820312 253.757812 549.257812 253.535156 549.183594 255.332031 C 547.5 255.332031 547.6875 255.332031 547.6875 257.128906 C 546.152344 257.128906 547.238281 256.90625 546.601562 257.542969 C 545.964844 258.179688 546.335938 257.128906 546.152344 258.628906 C 544.277344 258.816406 545.0625 260.011719 544.089844 261.0625 L 541.878906 263.121094 C 541.492188 263.394531 541.195312 263.742188 540.988281 264.171875 C 540.78125 264.597656 540.691406 265.046875 540.71875 265.519531 L 539.78125 265.519531 C 539.78125 266.679688 539.78125 266.269531 539.035156 266.867188 L 538.847656 266.867188 C 538.097656 267.65625 538.285156 266.867188 538.285156 268.703125 L 537.347656 268.964844 C 536.636719 269.488281 536.75 269.753906 536.75 270.761719 L 535.289062 270.761719 L 535.289062 271.699219 L 534.390625 271.699219 L 534.390625 274.097656 C 532.851562 274.097656 533.941406 273.835938 533.304688 274.472656 C 532.667969 275.109375 533.039062 274.023438 532.851562 275.59375 C 530.644531 275.820312 532.851562 276.832031 530.417969 277.019531 L 530.042969 278.140625 C 529.199219 279.585938 528.125 280.835938 526.824219 281.886719 C 526.523438 282.152344 526.824219 281.886719 526.335938 282.300781 C 526.148438 282.53125 525.984375 282.78125 525.847656 283.050781 C 525.175781 284.246094 524.164062 286.234375 522.554688 286.382812 C 522.609375 286.671875 522.609375 286.957031 522.554688 287.246094 C 522.214844 288.066406 521.675781 288.730469 520.941406 289.230469 L 519.929688 290.277344 C 519.707031 290.652344 519.707031 290.277344 519.59375 291.214844 C 517.195312 291.214844 518.65625 293.910156 516.296875 294.210938 C 516.296875 295.371094 515.359375 295.636719 514.613281 296.382812 L 513.226562 297.730469 C 512.777344 298.042969 512.425781 298.441406 512.167969 298.925781 C 511.910156 299.40625 511.777344 299.921875 511.765625 300.464844 L 510.230469 300.464844 L 510.230469 301.964844 L 509.332031 301.964844 L 509.332031 302.863281 C 507.871094 302.863281 508.882812 302.640625 508.246094 303.277344 C 507.609375 303.914062 507.980469 302.863281 507.792969 304.363281 C 506.183594 304.363281 507.496094 304.136719 506.671875 305 C 505.847656 305.859375 507.195312 305.636719 505.359375 305.859375 L 505.359375 306.757812 L 504.460938 306.757812 C 504.460938 308.820312 502.550781 308.746094 502.363281 310.503906 C 500.976562 310.503906 500.191406 312.117188 500.078125 312.152344 L 497.308594 314.851562 C 496.632812 315.597656 496.632812 315.636719 496.632812 316.835938 C 495.808594 316.835938 495.921875 316.835938 495.285156 316.835938 L 493.75 318.332031 C 493.488281 319.046875 493.75 318.859375 493.75 319.683594 L 492.585938 319.683594 C 492.585938 321.179688 492.8125 320.09375 492.175781 320.730469 C 491.539062 321.367188 492.664062 320.992188 491.089844 321.179688 L 491.089844 322.078125 C 489.628906 322.078125 490.640625 321.855469 490.003906 322.492188 C 489.367188 323.128906 489.742188 322.042969 489.554688 323.578125 L 488.65625 323.578125 C 488.65625 325.039062 488.917969 323.988281 488.203125 324.664062 C 487.492188 325.339844 488.691406 324.925781 487.15625 325.074219 C 486.929688 327.171875 486.332031 324.8125 486.257812 327.472656 C 484.382812 327.472656 485.132812 327.808594 484.421875 328.933594 L 483.558594 329.90625 L 483.074219 330.355469 C 482.363281 330.957031 482.136719 330.992188 482.023438 332.003906 C 480.527344 332.191406 481.613281 332.003906 480.9375 332.453125 C 480.265625 332.902344 480.675781 332.003906 480.527344 333.503906 L 479.589844 333.503906 L 479.589844 335 L 477.605469 335 L 477.605469 335.9375 C 476.070312 335.9375 477.15625 335.714844 476.519531 336.351562 C 475.882812 336.988281 476.257812 335.9375 476.070312 337.4375 L 475.167969 337.4375 C 475.167969 339.347656 473.558594 339.796875 472.585938 341.183594 C 471.613281 342.566406 472.136719 341.40625 472.136719 342.90625 C 470.675781 342.90625 471.722656 342.644531 471.050781 343.316406 C 470.375 343.992188 470.789062 342.867188 470.636719 344.402344 L 469.703125 344.402344 C 469.757812 344.664062 469.757812 344.929688 469.703125 345.191406 L 469.027344 346.390625 C 469.027344 346.390625 468.613281 347.136719 468.613281 347.136719 C 468.09375 348.898438 467.980469 350.683594 468.277344 352.492188 L 468.765625 354.03125 C 469.101562 354.929688 468.988281 354.742188 469.363281 355.601562 C 469.738281 356.464844 469.363281 355.304688 469.625 356.164062 C 469.722656 356.527344 469.722656 356.890625 469.625 357.25 L 470.5625 357.25 L 473.109375 361.632812 C 473.632812 361.859375 472.886719 361.632812 473.597656 361.632812 C 473.597656 363.058594 473.597656 362.046875 474.007812 362.683594 C 475.078125 364.390625 476.390625 365.890625 477.941406 367.175781 C 478.765625 368 479.027344 368.261719 479.027344 369.425781 L 480.5625 369.425781 L 480.5625 370.921875 C 481.246094 371.011719 481.878906 371.238281 482.460938 371.605469 C 483.042969 371.96875 483.523438 372.441406 483.898438 373.019531 C 484.273438 373.507812 484.382812 373.28125 484.496094 374.21875 C 484.945312 374.292969 485.347656 374.464844 485.710938 374.738281 C 486.074219 375.007812 486.359375 375.347656 486.558594 375.753906 C 486.820312 376.242188 486.78125 375.230469 486.894531 376.617188 L 488.390625 376.617188 C 488.390625 378.265625 488.730469 378.003906 489.890625 378.414062 C 490.339844 378.601562 489.367188 378.601562 490.828125 378.714844 L 490.828125 380.363281 L 491.726562 380.363281 C 491.914062 381.859375 491.539062 380.773438 492.175781 381.410156 C 492.8125 382.046875 491.726562 381.710938 493.261719 381.859375 L 493.261719 382.757812 C 495.996094 382.757812 493.636719 383.132812 495.695312 383.359375 L 495.695312 384.257812 L 497.195312 384.257812 C 497.195312 384.894531 497.195312 384.480469 497.195312 384.96875 L 497.605469 385.492188 C 498.242188 385.90625 498.46875 385.757812 499.480469 385.757812 L 499.480469 386.65625 L 500.789062 386.878906 C 503 387.453125 505.210938 387.453125 507.421875 386.878906 L 510.003906 386.503906 L 510.003906 385.605469 C 511.316406 385.605469 512.027344 385.382812 512.175781 384.109375 L 513.976562 384.109375 C 513.976562 382.609375 513.75 383.695312 514.386719 383.058594 C 515.023438 382.421875 513.976562 382.757812 515.472656 382.609375 C 515.660156 381.109375 515.25 382.199219 515.921875 381.5625 C 516.597656 380.925781 515.472656 381.261719 517.007812 381.109375 L 517.007812 380.363281 L 518.359375 379.277344 C 518.957031 378.714844 518.996094 378.863281 520.003906 378.863281 L 520.003906 377.964844 L 520.941406 377.964844 L 520.941406 376.617188 L 522.441406 376.617188 L 522.441406 375.753906 C 523.488281 375.753906 522.738281 375.753906 523.152344 375.53125 L 524.125 374.742188 L 524.464844 374.40625 L 526.296875 372.871094 C 526.671875 372.777344 527.046875 372.777344 527.421875 372.871094 C 527.609375 371.371094 527.160156 372.421875 527.871094 371.785156 C 528.582031 371.148438 527.382812 371.523438 528.957031 371.371094 L 528.957031 370.4375 C 531.09375 370.4375 528.957031 369.164062 531.316406 368.9375 C 531.316406 367.441406 531.09375 368.527344 531.765625 367.890625 C 532.441406 367.253906 531.316406 367.625 532.851562 367.441406 L 532.851562 366.539062 C 534.351562 366.539062 533.265625 366.765625 533.902344 366.128906 C 534.539062 365.492188 534.203125 366.539062 534.351562 365.042969 C 536.5625 364.816406 534.578125 363.804688 536.785156 363.542969 L 536.785156 362.644531 C 538.285156 362.644531 537.199219 362.90625 537.871094 362.195312 C 538.546875 361.484375 538.136719 362.683594 538.285156 361.148438 C 540.457031 361.148438 542.667969 358 544.238281 356.539062 L 546.335938 354.441406 C 546.335938 354.441406 546.335938 354.441406 546.523438 354.441406 L 547.984375 352.945312 C 549.222656 351.820312 549.746094 350.546875 551.730469 350.546875 L 551.730469 349.609375 C 553.941406 349.421875 551.957031 348.410156 554.167969 348.113281 L 554.167969 347.214844 C 555.703125 347.214844 554.617188 347.4375 555.253906 346.800781 C 555.890625 346.164062 555.515625 347.289062 555.703125 345.714844 C 557.199219 345.714844 556.113281 345.9375 556.75 345.300781 C 557.386719 344.664062 557.050781 345.789062 557.199219 344.214844 C 558.175781 344.214844 557.6875 344.214844 558.136719 343.953125 L 558.773438 343.429688 C 559.296875 342.867188 559.523438 342.832031 559.636719 341.820312 C 561.132812 341.820312 560.046875 342.082031 560.722656 341.445312 C 561.394531 340.808594 560.984375 341.855469 561.132812 340.359375 C 562.105469 340.359375 561.621094 340.359375 562.070312 340.058594 L 562.707031 339.496094 C 563.269531 338.972656 563.457031 338.933594 563.566406 337.960938 C 565.027344 337.960938 564.015625 338.1875 564.652344 337.550781 C 565.292969 336.914062 564.917969 337.960938 565.105469 336.460938 C 566.863281 336.238281 566.339844 335.1875 568.398438 334.964844 L 568.398438 333.464844 L 569 333.464844 L 569.410156 333.277344 L 569.636719 333.277344 L 570.011719 333.015625 L 570.011719 332.828125 C 571.171875 331.894531 570.722656 331.292969 572.183594 331.144531 C 572.183594 329.644531 571.957031 330.695312 572.632812 330.058594 C 573.308594 329.421875 572.183594 329.796875 573.679688 329.644531 L 573.679688 328.710938 L 574.617188 328.710938 C 574.617188 327.285156 574.394531 328.296875 575.03125 327.660156 C 575.667969 327.023438 574.617188 327.398438 576.117188 327.210938 C 576.304688 325.789062 576.117188 326.800781 576.566406 326.164062 C 577.015625 325.527344 576.117188 325.898438 577.652344 325.710938 L 577.652344 324.8125 L 578.738281 324.8125 C 578.925781 323.390625 578.476562 324.402344 579.1875 323.765625 C 579.898438 323.128906 578.699219 323.539062 580.273438 323.316406 C 580.460938 321.179688 581.507812 323.316406 581.773438 320.957031 L 582.484375 320.957031 C 582.671875 319.457031 582.257812 320.542969 582.933594 319.90625 C 583.605469 319.269531 582.484375 319.644531 584.019531 319.457031 C 584.019531 318.070312 584.695312 318.445312 585.742188 317.285156 L 587.089844 315.898438 C 587.390625 315.675781 586.867188 315.675781 587.953125 315.5625 C 587.953125 314.550781 587.953125 315.039062 588.289062 314.664062 C 589.074219 313.351562 589.449219 314.324219 589.449219 312.226562 C 590.984375 312.226562 589.898438 312.527344 590.535156 311.816406 C 591.171875 311.105469 590.800781 312.304688 590.984375 310.730469 C 591.886719 310.730469 592.445312 309.90625 592.820312 308.96875 L 596.042969 303.203125 L 596.417969 300.917969 C 596.394531 300.167969 596.46875 299.433594 596.640625 298.707031 C 597.015625 297.246094 597.089844 298.21875 597.316406 296.683594 L 597.316406 289.191406 C 596.652344 286.929688 596.339844 284.621094 596.378906 282.261719 C 596.378906 279.976562 595.816406 280.316406 595.816406 277.769531 L 594.882812 277.769531 C 594.824219 276.492188 594.613281 275.246094 594.246094 274.023438 C 593.726562 272.714844 593.089844 271.464844 592.335938 270.277344 L 591.847656 268.402344 L 590.949219 268.402344 C 590.949219 266.417969 590.125 266.792969 589.488281 265.371094 L 589.113281 264.507812 C 588.945312 264.277344 588.761719 264.066406 588.550781 263.871094 L 586.976562 263.011719 C 586.789062 260.988281 586.417969 263.386719 586.417969 260.613281 L 585.480469 260.613281 L 585.480469 259.113281 L 583.980469 259.113281 L 583.980469 257.617188 L 583.082031 257.617188 C 583.082031 256.644531 583.082031 257.390625 582.894531 256.90625 C 582.507812 256.300781 582.019531 255.789062 581.433594 255.367188 L 579.148438 253.757812 C 579.09375 253.402344 578.976562 253.070312 578.796875 252.757812 C 578.617188 252.445312 578.386719 252.179688 578.105469 251.953125 C 577.824219 251.726562 577.511719 251.558594 577.167969 251.453125 C 576.824219 251.34375 576.476562 251.300781 576.117188 251.324219 L 576.117188 250.425781 C 574.019531 250.425781 575.21875 250.425781 574.28125 249.824219 L 573.417969 249.449219 C 572.707031 249.039062 573.15625 249.824219 572.78125 248.925781 L 568.25 248.925781 L 568.25 248.027344 L 561.582031 248.027344 Z M 561.734375 248.589844 " fill-opacity="1" fill-rule="evenodd"/></g><path fill="#1800ad" d="M 351.75 78.160156 L 348.714844 78.160156 L 348.714844 79.058594 L 343.285156 79.058594 C 342.945312 79.921875 343.472656 79.660156 341.75 79.660156 L 341.75 80.707031 L 340.550781 80.707031 L 337.664062 82.054688 C 335.867188 82.691406 337.105469 81.757812 335.867188 82.953125 C 334.632812 84.152344 335.492188 83.742188 333.921875 83.742188 L 333.921875 84.453125 C 332.609375 84.453125 332.832031 84.828125 331.859375 85.464844 L 328.5625 88.460938 C 327.589844 89.398438 328.039062 89.695312 326.617188 89.847656 C 326.617188 91.15625 325.042969 92.09375 324.070312 93.03125 C 323.09375 93.96875 324.40625 93.554688 322.71875 93.78125 C 322.71875 96.515625 322.347656 94.15625 322.082031 96.175781 L 321.222656 96.175781 C 321.222656 97.636719 321.222656 97.039062 320.773438 97.824219 L 319.199219 99.285156 C 318.339844 100.074219 318.1875 100.035156 318.1875 101.535156 L 317.289062 101.535156 C 317.289062 102.769531 317.289062 101.535156 317.066406 102.246094 L 316.351562 103.667969 L 315.867188 104.117188 C 314.855469 105.015625 314.367188 105.128906 314.367188 106.777344 L 313.429688 106.777344 L 313.429688 107.714844 L 312.53125 107.714844 C 312.53125 108.464844 312.53125 108.386719 312.34375 108.988281 C 312.15625 109.585938 311.445312 109.773438 311.070312 110.710938 L 308.1875 114.832031 C 307.960938 115.394531 308.1875 114.269531 307.960938 115.503906 C 306.578125 115.503906 306.613281 117.003906 305.863281 117.863281 L 305.378906 118.277344 L 305.378906 118.464844 L 304.628906 119.738281 C 304.253906 120.597656 304.402344 119.324219 304.253906 120.859375 C 303.28125 120.859375 303.054688 121.273438 302.082031 122.695312 L 301.519531 123.632812 C 300.980469 124.832031 300.242188 125.894531 299.308594 126.816406 L 298.898438 128.539062 L 297.960938 128.539062 C 298.019531 128.816406 298.019531 129.089844 297.960938 129.363281 C 297.738281 130.113281 297.960938 129.664062 297.585938 130.1875 C 296.277344 131.796875 296.125 130.863281 295.265625 133.296875 L 295.078125 133.710938 C 295.023438 134.070312 295.023438 134.433594 295.078125 134.796875 L 293.839844 135.355469 C 293.875 135.433594 293.875 135.507812 293.839844 135.582031 C 293.4375 136.429688 292.9375 137.214844 292.34375 137.941406 C 291.96875 138.316406 292.117188 138.167969 291.855469 138.691406 L 289.757812 142.921875 C 289.007812 144.195312 288.898438 145.921875 287.324219 146.667969 L 287.324219 149.664062 L 286.460938 149.664062 C 286.460938 150.976562 286.199219 151.3125 287.136719 151.949219 C 288.074219 152.585938 288.183594 151.949219 289.421875 152.699219 L 299.871094 157.042969 C 300.625 157.390625 301.199219 157.929688 301.59375 158.65625 L 304.628906 158.65625 C 305.003906 160.152344 305.304688 159.855469 306.652344 160.152344 C 308 160.453125 307.324219 160.152344 308.300781 160.941406 C 309.949219 161.914062 310.359375 161.203125 312.046875 162.175781 L 313.878906 163.074219 C 314.28125 163.113281 314.679688 163.113281 315.078125 163.074219 L 315.078125 163.898438 C 316.386719 164.074219 317.636719 164.449219 318.824219 165.023438 L 320.285156 165.695312 C 321.015625 166.25 321.828125 166.640625 322.71875 166.859375 C 323.292969 166.914062 323.871094 166.914062 324.445312 166.859375 L 324.445312 167.792969 C 325.980469 167.792969 326.691406 168.804688 327.925781 169.179688 C 329.164062 169.554688 330.960938 169.59375 331.449219 170.792969 L 333.84375 170.792969 L 333.84375 171.691406 C 334.519531 171.691406 334.332031 171.691406 334.558594 171.914062 L 338.601562 173.226562 C 338.84375 173.289062 339.066406 173.390625 339.277344 173.527344 C 339.4375 173.671875 339.609375 173.796875 339.800781 173.898438 L 342.125 174.910156 C 342.125 174.910156 342.125 174.910156 342.347656 174.910156 L 353.960938 179.820312 C 354.320312 179.894531 354.683594 179.894531 355.046875 179.820312 L 355.046875 180.753906 C 355.980469 180.753906 355.644531 180.753906 356.355469 180.753906 L 359.203125 181.804688 C 359.429688 181.804688 359.203125 181.992188 359.878906 182.027344 L 359.878906 182.925781 L 364.710938 183.527344 C 365.121094 182.628906 364.074219 183.113281 365.644531 182.925781 C 365.644531 181.390625 366.019531 181.429688 366.058594 181.355469 L 366.542969 180.269531 C 366.542969 180.269531 366.542969 180.269531 366.542969 180.042969 C 366.652344 179.746094 366.835938 179.511719 367.101562 179.339844 C 367.363281 179.164062 367.652344 179.089844 367.96875 179.105469 C 367.96875 176.296875 368.34375 178.730469 368.566406 176.671875 L 369.464844 176.671875 C 369.449219 176.386719 369.449219 176.097656 369.464844 175.8125 C 369.464844 175.175781 369.464844 175.511719 369.730469 175.175781 L 371.003906 174.273438 L 371.003906 172.175781 C 372.652344 172.175781 372.5 172.175781 372.5 170.378906 L 372.726562 170.378906 C 372.726562 167.308594 374.261719 169.667969 374.261719 166.445312 C 375.421875 166.445312 374.671875 166.671875 375.308594 166.035156 C 375.945312 165.398438 375.308594 165.808594 375.910156 164.875 L 376.695312 162.625 C 377.046875 162.585938 377.355469 162.453125 377.625 162.226562 C 377.898438 162.003906 378.085938 161.722656 378.195312 161.390625 L 379.28125 159.777344 C 379.917969 158.917969 379.691406 159.777344 379.691406 158.132812 L 380.628906 158.132812 C 380.628906 156.671875 380.628906 157.757812 381.226562 156.894531 C 381.796875 156.085938 382.097656 155.1875 382.128906 154.199219 L 383.0625 154.199219 C 383.0625 151.425781 383.4375 153.824219 383.664062 151.800781 L 384.5625 151.800781 C 384.5625 149.179688 386.097656 150.453125 386.097656 148.054688 C 387.558594 147.867188 387.597656 147.042969 387.597656 145.695312 L 388.457031 145.695312 L 388.457031 144.195312 C 389.957031 144.195312 389.957031 143.109375 389.957031 141.800781 L 390.890625 141.460938 C 391.714844 140.9375 391.492188 140.453125 391.492188 139.363281 L 392.390625 139.363281 L 392.390625 137.867188 L 393.328125 137.605469 C 394.152344 137.003906 393.925781 136.554688 393.925781 135.46875 L 394.824219 135.46875 C 394.753906 135.109375 394.753906 134.746094 394.824219 134.382812 L 397.148438 130.636719 L 397.632812 127.789062 L 398.570312 127.789062 L 399.171875 125.695312 C 399.191406 125.617188 399.191406 125.542969 399.171875 125.46875 C 399.808594 124.457031 399.582031 123.707031 399.882812 122.585938 C 400.179688 121.460938 399.882812 122.585938 400.519531 121.421875 L 400.742188 120.449219 C 401.117188 119.25 400.144531 120 401.304688 119.550781 L 401.304688 115.617188 L 402.691406 115.617188 C 402.691406 113.933594 402.691406 112.246094 402.691406 110.5625 C 402.910156 109.183594 402.734375 107.863281 402.167969 106.589844 L 401.980469 106.589844 L 399.355469 101.121094 C 398.945312 100.261719 399.019531 100.035156 397.820312 99.886719 C 397.808594 98.820312 397.484375 97.859375 396.847656 97 C 396.839844 96.925781 396.839844 96.851562 396.847656 96.777344 L 394.898438 94.792969 C 394.523438 94.566406 394.898438 94.792969 394 94.527344 C 394 91.757812 393.625 94.15625 393.402344 92.132812 C 393.097656 92.082031 392.808594 91.984375 392.53125 91.84375 C 392.257812 91.703125 392.011719 91.523438 391.792969 91.304688 C 391.574219 91.085938 391.394531 90.839844 391.253906 90.566406 C 391.113281 90.292969 391.015625 90 390.96875 89.699219 C 389.507812 89.699219 390.515625 89.921875 389.878906 89.285156 C 389.242188 88.648438 389.617188 89.699219 389.46875 88.199219 L 387.671875 88.199219 C 387.671875 86.777344 387.894531 87.785156 387.222656 87.148438 C 386.546875 86.511719 387.671875 86.886719 386.171875 86.699219 C 386.171875 85.277344 386.359375 86.289062 385.722656 85.652344 C 385.085938 85.015625 386.171875 85.390625 384.636719 85.203125 L 384.636719 84.453125 C 381.941406 84.453125 383.289062 82.953125 380.890625 82.953125 L 380.890625 82.09375 C 378.082031 82.09375 380.515625 81.679688 378.457031 81.457031 L 378.457031 80.707031 L 376.472656 80.707031 L 376.472656 79.808594 C 374.710938 79.808594 375.308594 80.070312 374.933594 79.210938 L 371.640625 79.210938 L 371.640625 78.308594 L 367.707031 78.308594 C 367.21875 77.1875 366.546875 77.671875 363.960938 77.710938 L 353.324219 77.710938 C 351 77.710938 352.085938 77.710938 351.523438 78.347656 Z M 351.75 78.160156 " fill-opacity="1" fill-rule="evenodd"/><path fill="#1800ad" d="M 426.511719 119.476562 C 424.789062 119.476562 425.316406 119.214844 424.976562 120.074219 L 421.980469 120.074219 L 421.980469 120.972656 C 420.070312 121.199219 421.15625 122.472656 418.011719 122.472656 C 418.011719 123.558594 417.710938 123.632812 416.925781 124.082031 L 415.425781 125.320312 L 412.019531 128.839844 C 411.792969 129.328125 412.019531 128.464844 411.792969 129.550781 C 410.332031 129.550781 411.34375 129.289062 410.707031 129.964844 C 410.070312 130.636719 410.480469 129.476562 410.292969 131.050781 L 409.433594 131.050781 C 409.433594 132.847656 409.433594 132.023438 408.609375 132.960938 C 408.320312 133.195312 408.113281 133.484375 407.984375 133.835938 C 407.855469 134.183594 407.828125 134.542969 407.898438 134.90625 C 406.398438 134.90625 407.484375 134.683594 406.8125 135.320312 C 406.136719 135.957031 406.550781 134.90625 406.398438 136.40625 L 405.460938 136.40625 C 405.460938 138.316406 404.976562 137.792969 404.339844 139.175781 C 404.339844 139.175781 404.339844 139.550781 404.339844 139.589844 L 403.664062 141.085938 C 403.664062 141.085938 403.664062 141.085938 403.664062 141.273438 L 402.914062 142.921875 C 402.703125 143.324219 402.628906 143.746094 402.691406 144.195312 L 401.792969 144.195312 C 401.792969 144.910156 401.792969 144.570312 401.566406 144.910156 C 401.082031 145.957031 399.882812 147.007812 399.582031 147.679688 C 399.28125 148.355469 399.582031 148.542969 399.207031 149.402344 C 398.832031 150.265625 397.746094 150.789062 397.371094 151.5 L 396.699219 152.660156 C 396.285156 153.5625 396.324219 152.925781 396.324219 154.386719 C 395.6875 154.386719 396.097656 154.386719 395.613281 154.386719 C 395.125 154.386719 394.9375 155.320312 394.710938 155.847656 L 393.886719 157.457031 C 393.589844 158.09375 393.886719 157.71875 393.402344 158.207031 C 392.390625 159.328125 392.613281 157.945312 392.425781 159.589844 L 391.527344 159.589844 C 391.527344 160.492188 391.527344 161.6875 390.855469 162.25 C 390.179688 162.8125 391.042969 162.476562 389.992188 162.589844 C 389.769531 164.609375 389.394531 162.214844 389.394531 164.984375 L 388.496094 164.984375 L 388.496094 166.484375 L 387.558594 166.484375 C 387.558594 168.542969 386.957031 166.109375 386.957031 168.917969 L 386.058594 168.917969 C 386.058594 170.679688 385.5 170.679688 384.375 171.691406 C 383.25 172.703125 383.960938 171.691406 383.625 173.339844 L 383.402344 174.050781 C 383.410156 174.113281 383.410156 174.175781 383.402344 174.238281 C 383.136719 174.984375 383.402344 173.449219 383.0625 175.171875 L 382.164062 175.171875 C 382.164062 178.207031 380.628906 175.847656 380.628906 178.917969 C 379.390625 178.917969 379.167969 180.269531 378.644531 181.128906 L 378.417969 181.503906 C 377.898438 182.367188 377.625 183.304688 377.59375 184.3125 C 376.921875 184.3125 377.296875 184.3125 376.921875 184.5 L 376.546875 184.5 L 376.359375 184.6875 C 375.496094 185.472656 376.058594 185.0625 375.648438 186.074219 L 375.273438 187.195312 C 375.195312 187.871094 375.195312 188.546875 375.273438 189.21875 L 375.945312 189.21875 C 376.207031 189.96875 376.84375 189.820312 377.707031 189.820312 L 377.707031 190.71875 L 379.46875 191.09375 L 379.730469 191.09375 L 382.3125 192.140625 L 383.175781 192.140625 C 383.175781 193.378906 383.175781 192.367188 383.773438 193.640625 L 386.210938 193.640625 L 386.210938 194.539062 C 387.933594 194.539062 387.410156 194.277344 387.707031 195.136719 L 390.144531 195.136719 L 390.144531 196.824219 L 391.078125 196.824219 L 391.078125 197.683594 C 392.953125 197.683594 392.914062 198.320312 394.824219 198.320312 L 394.824219 199.183594 C 396.699219 199.183594 396.660156 199.820312 398.757812 199.820312 L 398.757812 200.570312 L 400.257812 200.570312 L 400.257812 201.46875 L 406.660156 203.566406 L 406.660156 204.464844 L 408.160156 204.464844 L 408.160156 205.402344 L 409.46875 205.589844 C 410.3125 205.859375 411.171875 205.984375 412.054688 205.964844 L 412.054688 206.898438 C 413.964844 206.898438 413.027344 206.710938 413.890625 207.460938 C 415.949219 209.335938 415.125 207.460938 417.035156 209.148438 C 417.253906 209.351562 417.492188 209.523438 417.75 209.671875 C 418.386719 210.007812 418.234375 209.894531 419.023438 209.894531 L 419.023438 210.796875 L 419.957031 210.796875 C 419.863281 211.15625 419.863281 211.519531 419.957031 211.882812 C 419.945312 211.945312 419.945312 212.007812 419.957031 212.070312 L 420.183594 212.441406 L 420.371094 212.628906 L 421.71875 214.804688 C 422.316406 215.890625 422.019531 216.75 422.242188 217.910156 C 422.746094 219.28125 422.917969 220.691406 422.765625 222.144531 C 422.699219 223.664062 422.488281 225.160156 422.128906 226.640625 C 422.160156 228.941406 422.074219 231.238281 421.867188 233.53125 C 421.371094 234.898438 421.167969 236.3125 421.269531 237.765625 C 421.269531 240.722656 420.40625 239 420.371094 241.507812 C 420.371094 241.773438 420.371094 242.519531 420.371094 242.746094 C 420.183594 243.644531 420.371094 243.308594 419.769531 243.644531 L 419.769531 248.402344 L 418.835938 248.402344 L 418.835938 251.398438 C 418.085938 251.734375 418.460938 251.398438 418.121094 252.222656 L 417.261719 256.492188 C 417.277344 256.9375 417.375 257.363281 417.5625 257.765625 L 418.199219 260.726562 C 418.796875 262.148438 418.199219 260.460938 418.835938 261.886719 L 420.667969 261.886719 C 420.667969 260.539062 420.667969 260.460938 422.207031 260.386719 C 422.203125 259.691406 422.328125 259.015625 422.582031 258.367188 C 422.582031 258.367188 422.582031 258.367188 422.582031 258.140625 L 423.179688 257.804688 C 423.777344 257.578125 422.917969 257.804688 423.667969 257.804688 C 423.855469 256.753906 423.667969 257.578125 423.890625 257.128906 L 425.464844 254.769531 C 426.0625 253.644531 426.589844 253.308594 426.699219 252.148438 C 428.160156 251.960938 428.046875 250.574219 428.871094 249.710938 L 430.070312 248.515625 C 430.632812 247.914062 430.445312 247.765625 431.570312 247.652344 C 431.570312 244.84375 431.945312 247.277344 432.167969 245.21875 L 433.066406 245.21875 L 433.066406 243.71875 L 434.605469 243.71875 C 434.605469 242.222656 434.867188 242.445312 435.203125 241.921875 L 435.839844 240.460938 C 436.328125 239.785156 435.839844 239.9375 437.039062 239.824219 C 437.039062 238.0625 438.648438 237.425781 439.621094 236.078125 C 440.597656 234.730469 440.035156 235.855469 440.035156 234.355469 L 440.933594 234.355469 L 440.933594 233.492188 L 441.832031 233.492188 C 442.058594 231.472656 442.433594 233.832031 442.433594 231.097656 C 444.605469 230.835938 442.808594 230.535156 445.691406 227.652344 L 446.589844 226.75 C 447.285156 226.023438 447.722656 225.160156 447.902344 224.167969 L 448.800781 224.167969 L 449.25 222.519531 L 449.886719 221.917969 C 450.59375 221.382812 451.089844 220.695312 451.382812 219.859375 C 451.796875 219 451.722656 218.886719 452.769531 218.773438 C 452.769531 217.351562 452.769531 218.285156 453.445312 217.386719 C 454.117188 216.488281 454.492188 216.300781 455.167969 214.652344 C 455.503906 213.980469 455.355469 214.277344 455.839844 213.753906 L 456.703125 212.519531 C 456.683594 212.441406 456.683594 212.367188 456.703125 212.292969 C 456.988281 211.675781 457.449219 211.25 458.089844 211.019531 L 458.089844 208.621094 C 458.761719 208.621094 458.089844 208.621094 458.574219 208.621094 C 459.0625 208.621094 458.574219 208.621094 458.800781 208.621094 C 459.738281 208.136719 459.8125 206.863281 460.523438 206.152344 C 461.234375 205.4375 460.898438 206.152344 461.460938 204.726562 L 461.835938 203.867188 C 461.957031 203.417969 461.957031 202.964844 461.835938 202.515625 C 462.546875 202.515625 461.835938 202.515625 462.320312 202.515625 L 462.546875 202.515625 L 462.921875 202.253906 C 462.921875 202.253906 462.921875 202.253906 462.921875 202.066406 L 464.121094 200.007812 C 464.664062 199.605469 465.039062 199.082031 465.242188 198.433594 L 465.542969 197.796875 C 465.617188 197.335938 465.617188 196.875 465.542969 196.410156 L 466.441406 196.410156 C 466.441406 194.390625 466.890625 195.550781 468.164062 192.667969 L 468.800781 191.167969 C 468.769531 191.09375 468.769531 191.019531 468.800781 190.941406 L 468.800781 190.53125 C 468.835938 190.457031 468.835938 190.382812 468.800781 190.304688 L 469.25 189.820312 C 469.886719 189.03125 469.664062 188.132812 470.226562 187.199219 L 471.460938 186.296875 C 471.460938 182.027344 472.960938 181.917969 472.960938 179.445312 L 473.820312 179.445312 L 473.820312 176.449219 C 474.757812 176.074219 474.496094 175.0625 474.496094 174.050781 L 475.355469 174.050781 L 475.355469 169.554688 C 476.367188 169.179688 475.65625 170.265625 476.144531 168.542969 L 476.59375 165.660156 C 476.59375 165.660156 476.59375 165.660156 476.59375 165.433594 L 476.816406 163.300781 C 476.988281 160.015625 476.988281 156.734375 476.816406 153.449219 C 476.480469 151.726562 476.59375 153.972656 476.332031 151.839844 L 474.15625 143.484375 C 474.15625 143.484375 474.15625 143.484375 474.15625 143.296875 L 473.933594 141.988281 L 473.859375 141.988281 C 473.496094 140.824219 472.972656 139.738281 472.285156 138.726562 C 472.285156 138.726562 472.285156 138.726562 472.285156 138.503906 L 471.050781 136.816406 C 470.972656 136.445312 470.972656 136.070312 471.050781 135.695312 L 470.113281 135.695312 C 470.113281 134.234375 470.339844 135.246094 469.664062 134.609375 C 468.988281 133.972656 470.113281 134.382812 468.578125 134.195312 L 468.578125 133.335938 L 467.679688 133.335938 L 467.679688 132.4375 C 465.582031 132.4375 465.691406 130.710938 463.933594 130.375 C 463.644531 130.320312 463.359375 130.320312 463.070312 130.375 L 463.070312 129.476562 C 461.871094 129.328125 460.773438 128.917969 459.773438 128.242188 C 459.0625 127.679688 459.289062 128.242188 459.101562 127.042969 C 457.003906 127.042969 458.089844 126.855469 456.890625 126.253906 L 453.96875 124.644531 C 452.734375 124.382812 453.445312 124.234375 451.871094 124.046875 L 451.871094 123.144531 C 450.898438 123.144531 450.75 123.144531 450 122.921875 L 446.890625 121.796875 C 446.226562 121.703125 445.566406 121.703125 444.90625 121.796875 L 444.90625 120.898438 C 443.445312 120.898438 442.730469 120.261719 440.671875 120.300781 C 439.738281 120.460938 438.839844 120.347656 437.976562 119.960938 L 437.5625 119.773438 C 437.300781 119.738281 437.039062 119.738281 436.777344 119.773438 C 433.78125 119.550781 429.847656 119.773438 426.777344 119.773438 Z M 426.511719 119.476562 " fill-opacity="1" fill-rule="evenodd"/><path fill="#1800ad" d="M 402.277344 273.496094 L 398.945312 273.496094 L 398.945312 274.398438 C 398.457031 274.359375 397.972656 274.359375 397.484375 274.398438 L 393.328125 275.933594 C 391.648438 276.652344 389.898438 277.117188 388.082031 277.320312 L 388.082031 278.253906 L 385.046875 278.253906 C 384.710938 279.042969 384.039062 278.667969 382.578125 279.414062 L 379.953125 280.128906 C 379.953125 280.128906 379.953125 280.128906 379.765625 280.128906 C 378.941406 280.390625 378.121094 280.128906 377.746094 281.140625 L 374.710938 281.140625 L 374.710938 282.039062 C 373.980469 281.9375 373.269531 282.011719 372.574219 282.261719 L 371.863281 282.261719 C 371.863281 282.261719 371.863281 282.261719 371.640625 282.261719 C 369.691406 282.75 370.554688 283.011719 368.71875 283.238281 L 366.882812 283.5 C 365.535156 283.984375 364.261719 283.984375 362.949219 284.398438 L 361.488281 285.070312 C 360.363281 285.707031 361.976562 285.070312 360.441406 285.597656 C 359.503906 285.859375 357.742188 285.597656 356.695312 285.859375 L 356.28125 285.859375 L 353.882812 286.796875 C 352.609375 287.355469 350.140625 286.796875 348.867188 287.207031 L 346.804688 287.582031 C 344.558594 287.582031 345.34375 288.21875 343.769531 288.480469 C 342.199219 288.742188 340.960938 288.292969 340.027344 288.742188 C 340.027344 289.417969 340.027344 289.117188 340.398438 289.566406 C 341.234375 290.191406 342.132812 290.703125 343.097656 291.101562 L 348.078125 293.949219 L 348.941406 294.324219 L 349.914062 294.847656 C 350.886719 295.296875 351.300781 295.335938 351.601562 296.457031 L 353.136719 296.457031 C 354.972656 296.722656 354.148438 297.957031 356.46875 297.957031 L 356.46875 298.855469 L 358.566406 299.457031 L 359.277344 299.941406 L 363.023438 301.664062 C 363.433594 301.839844 363.855469 301.902344 364.296875 301.851562 L 364.296875 302.789062 C 367.070312 302.789062 364.558594 303.351562 367.332031 303.351562 L 367.332031 304.289062 C 368.492188 304.15625 369.578125 304.378906 370.589844 304.960938 C 371.191406 305.410156 371.003906 304.960938 371.265625 305.785156 L 374.5625 305.785156 L 374.5625 306.609375 L 375.835938 306.609375 C 378.207031 307.46875 380.605469 307.542969 383.027344 306.835938 C 383.425781 306.613281 383.847656 306.539062 384.300781 306.609375 L 384.300781 305.785156 L 388.046875 304.660156 L 388.417969 304.4375 C 388.683594 304.4375 388.417969 304.4375 389.132812 304.4375 C 389.132812 302.9375 388.90625 303.949219 389.542969 303.3125 C 390.179688 302.675781 389.132812 303.089844 390.628906 302.9375 C 390.628906 301.742188 391.265625 301.816406 392.351562 300.128906 C 392.351562 300.128906 392.351562 300.128906 392.539062 299.941406 L 392.953125 299.492188 C 393.476562 298.855469 393.550781 299.230469 393.664062 298.105469 C 394.375 298.105469 393.925781 298.105469 394.375 297.882812 L 395.199219 297.957031 L 397.785156 293.3125 L 399.09375 292.226562 L 399.320312 291.8125 C 400.332031 289.941406 400.070312 291.550781 401.304688 288.96875 L 402.167969 287.804688 L 402.167969 287.617188 L 402.503906 287.058594 C 403.328125 285.484375 403.816406 285.707031 404.976562 283.5 L 405.539062 281.625 C 406.550781 281.625 406.550781 281.25 407.109375 280.503906 L 409.582031 276.757812 C 410.519531 274.957031 410.332031 276.945312 410.332031 273.011719 C 408.683594 273.011719 408.683594 272.1875 407.636719 272.113281 L 404.339844 272.113281 C 403.738281 272.113281 403.964844 272.113281 403.703125 272.375 C 402.878906 272.824219 402.464844 272.824219 402.167969 273.574219 Z M 402.277344 273.496094 " fill-opacity="1" fill-rule="evenodd"/></svg>